<svg width="574" height="381" viewBox="0 0 574 381" fill="none" xmlns="http://www.w3.org/2000/svg">
<path d="M290.784 107.084C285.665 98.6225 279.601 89.5881 270.103 86.8252C259.104 83.6255 247.805 89.9817 238.221 96.254C209.559 115.012 181.957 135.341 155.542 157.147L155.571 157.475C176.136 156.058 196.702 154.64 217.267 153.222C232.126 152.198 247.495 151.033 260.626 144.006C265.608 141.34 270.465 137.779 276.112 137.53C283.126 137.222 289.243 142.119 294.05 147.236C322.483 177.502 330.711 223.786 362.611 250.377C342.496 200.789 318.478 152.875 290.784 107.084Z" fill="#F2F2F2"/>
<path d="M465.561 363.794C462.416 359.826 461.132 358.896 458.03 354.89C432.776 322.241 409.039 288.488 386.819 253.633C371.727 229.961 357.383 205.834 343.788 181.252C337.315 169.566 331.02 157.788 324.902 145.918C320.155 136.715 315.514 127.456 310.978 118.142C309.681 115.482 308.421 112.81 307.167 110.131C304.212 103.833 301.312 97.5033 298.198 91.2901C294.65 84.2086 290.331 76.7846 283.815 72.0269C280.85 69.7728 277.305 68.409 273.593 68.0948C268.289 67.7523 263.395 69.9416 258.794 72.3327C225.134 89.8775 193.622 111.874 165.12 136.904C136.544 161.99 111.003 190.332 89.0152 221.35C88.3425 222.311 86.7518 221.393 87.4308 220.427C90.1043 216.648 92.8308 212.909 95.6102 209.212C130.171 163.265 172.548 123.753 220.803 92.4826C228.921 87.2234 237.193 82.2109 245.616 77.445C249.862 75.0417 254.126 72.669 258.464 70.443C262.716 68.2598 267.23 66.2968 272.088 66.2234C288.618 65.9666 297.177 84.6794 303.056 97.2709C304.903 101.234 306.773 105.184 308.666 109.122C315.817 124.074 323.244 138.89 330.946 153.568C335.7 162.631 340.557 171.641 345.519 180.598C360.96 208.49 377.372 235.817 394.754 262.58C417.781 298.03 440.625 329.347 466.858 362.498C467.58 363.415 466.289 364.724 465.561 363.794Z" fill="#E4E4E4"/>
<path d="M163.486 127.664C162.526 126.594 161.571 125.524 160.605 124.453C152.982 116.027 144.803 107.697 134.335 102.866C129.344 100.49 123.896 99.2277 118.368 99.1666C112.654 99.185 107.069 100.683 101.789 102.781C99.2932 103.778 96.8521 104.909 94.448 106.114C91.701 107.496 89.003 108.969 86.3176 110.456C81.2764 113.244 76.3007 116.155 71.3904 119.188C61.6203 125.224 52.1561 131.72 42.998 138.678C38.2505 142.286 33.6009 146.012 29.0494 149.856C24.816 153.428 20.6682 157.095 16.6061 160.858C15.7374 161.659 14.4404 160.363 15.309 159.561C16.3796 158.565 17.4625 157.574 18.5453 156.596C21.6042 153.831 24.712 151.12 27.8689 148.462C33.6254 143.607 39.5311 138.939 45.5857 134.458C55.001 127.487 64.7404 120.988 74.8038 114.962C79.8327 111.954 84.9308 109.071 90.0981 106.315C91.6583 105.484 93.2367 104.67 94.8334 103.9C98.4563 102.073 102.221 100.541 106.09 99.3195C111.571 97.5471 117.37 96.9777 123.091 97.65C128.615 98.4532 133.937 100.294 138.777 103.074C149.055 108.817 157.026 117.696 164.783 126.361C165.566 127.242 164.275 128.545 163.486 127.664Z" fill="#E4E4E4"/>
<path d="M374.072 214.989L398.7 205.985L410.928 201.514C414.91 200.058 418.883 198.401 423 197.358C426.578 196.336 430.376 196.385 433.927 197.497C437.093 198.669 439.991 200.465 442.449 202.778C444.961 205.09 447.297 207.584 449.44 210.24C452.102 213.439 454.725 216.67 457.36 219.891C468.233 233.184 479.036 246.535 489.768 259.943C500.499 273.352 511.159 286.817 521.746 300.339C532.36 313.894 542.901 327.506 553.369 341.174C554.651 342.849 555.932 344.524 557.212 346.2C557.92 347.126 559.514 346.213 558.797 345.274C548.252 331.468 537.634 317.719 526.942 304.026C516.223 290.3 505.431 276.633 494.565 263.023C483.698 249.414 472.759 235.864 461.746 222.373C459.002 219.012 456.254 215.655 453.501 212.301C451.179 209.473 448.883 206.613 446.336 203.98C441.661 199.147 435.821 194.876 428.829 194.76C424.719 194.692 420.74 195.996 416.921 197.377C412.804 198.866 408.697 200.383 404.585 201.886L379.784 210.953L373.584 213.22C372.484 213.622 372.959 215.396 374.072 214.989L374.072 214.989Z" fill="#E4E4E4"/>
<path d="M131.094 113.47C118.579 107.04 102.551 108.3 91.0505 116.333C112.987 120.116 134.684 125.178 156.03 131.492C147.166 126.3 140.232 118.164 131.094 113.47Z" fill="#F2F2F2"/>
<path d="M90.9274 116.31L88.5181 118.268C89.333 117.583 90.1803 116.94 91.0506 116.332C91.0095 116.325 90.9685 116.317 90.9274 116.31Z" fill="#F2F2F2"/>
<path d="M441.522 215.079C439.098 212.129 436.477 209.04 432.851 207.842L429.465 207.976C455.236 253.496 490.042 293.272 531.746 324.861C501.672 288.267 471.597 251.673 441.522 215.079Z" fill="#F2F2F2"/>
<path d="M230.999 190.745C232.566 196.434 236.096 201.387 240.964 204.726C242.846 206.006 245.072 207.235 245.716 209.418C246.055 210.81 245.846 212.278 245.133 213.521C244.421 214.747 243.555 215.877 242.556 216.884L242.465 217.225C237.795 214.459 233.352 210.959 230.772 206.184C228.192 201.41 227.832 195.152 230.999 190.745" fill="#F2F2F2"/>
<path d="M386.49 326.161C388.056 331.851 391.586 336.803 396.454 340.142C398.336 341.423 400.562 342.652 401.206 344.835C401.545 346.227 401.336 347.695 400.623 348.937C399.912 350.164 399.046 351.294 398.046 352.3L397.955 352.642C393.285 349.875 388.842 346.376 386.262 341.601C383.682 336.826 383.322 330.568 386.49 326.161" fill="#F2F2F2"/>
<path d="M76.1766 316.822C77.7433 322.512 81.2729 327.464 86.1408 330.803C88.0228 332.084 90.2494 333.313 90.8933 335.496C91.2319 336.887 91.0233 338.356 90.3103 339.598C89.5986 340.825 88.7326 341.955 87.7335 342.961L87.6423 343.303C82.972 340.536 78.5288 337.037 75.949 332.262C73.3691 327.487 73.009 321.229 76.1767 316.822" fill="#F2F2F2"/>
<path d="M433.27 68.0419C452.066 68.0419 467.304 52.8102 467.304 34.021C467.304 15.2317 452.066 0 433.27 0C414.473 0 399.235 15.2317 399.235 34.021C399.235 52.8102 414.473 68.0419 433.27 68.0419Z" fill="#4E9FBF"/>
<path d="M494.688 7.91842C478.194 5.68976 459.363 14.6017 455.088 30.6815C454.01 27.8225 452.052 25.3799 449.494 23.7065C446.937 22.0332 443.914 21.2157 440.862 21.3723C437.81 21.5289 434.886 22.6513 432.514 24.5775C430.142 26.5037 428.443 29.1339 427.664 32.0881L429.553 33.4401C464.9 41.081 501.49 40.9156 536.767 32.9555C525.293 20.9022 511.183 10.1471 494.688 7.91842Z" fill="#F0F0F0"/>
<path d="M423.95 53.2798C407.456 51.0511 388.625 59.963 384.35 76.0428C383.272 73.1838 381.313 70.7412 378.756 69.0679C376.199 67.3945 373.176 66.5771 370.124 66.7336C367.072 66.8902 364.148 68.0127 361.776 69.9389C359.404 71.8651 357.705 74.4953 356.926 77.4495L358.815 78.8014C394.162 86.4423 430.752 86.2769 466.029 78.3169C454.555 66.2635 440.445 55.5084 423.95 53.2798Z" fill="#F0F0F0"/>
<path d="M567.914 61.8569C567.845 61.8571 567.778 61.8465 567.712 61.8256C391.263 6.04585 235.748 13.34 136.357 29.2815C122.831 31.4502 109.269 33.955 96.0474 36.7268C92.6719 37.4337 89.17 38.1913 85.6391 38.9802C81.4223 39.9189 77.2616 40.8857 73.2718 41.8524C71.5488 42.2602 69.8593 42.6713 68.2036 43.0856C65.6955 43.7045 63.1506 44.3494 60.4226 45.0581C57.3743 45.8438 54.2771 46.6679 51.2151 47.5076C51.2039 47.5115 51.1925 47.5148 51.1809 47.5173L51.1812 47.518C47.7226 48.4619 44.2823 49.4333 40.9554 50.4033C39.1547 50.9231 37.416 51.4358 35.7506 51.942C35.5645 51.9934 35.3996 52.0429 35.2325 52.0937L34.8747 52.2025C34.6675 52.2657 34.4628 52.3276 34.2582 52.3862L34.2452 52.3901L34.2455 52.3908L33.7039 52.5589C33.0581 52.7544 32.4279 52.9452 31.8081 53.1354C15.4283 58.1828 6.42379 61.7736 6.33483 61.8088C6.25348 61.8413 6.16652 61.8576 6.07889 61.8566C5.99125 61.8556 5.90468 61.8373 5.8241 61.8029C5.74352 61.7684 5.67052 61.7185 5.60926 61.6558C5.54801 61.5932 5.4997 61.5191 5.46709 61.4378C5.43449 61.3564 5.41823 61.2695 5.41923 61.1819C5.42024 61.0943 5.43849 61.0078 5.47296 60.9272C5.50742 60.8467 5.55741 60.7737 5.62009 60.7125C5.68276 60.6512 5.75689 60.603 5.83824 60.5704C5.92785 60.5352 14.9764 56.9262 31.4158 51.8599C32.0379 51.669 32.6697 51.4782 33.3175 51.2821L33.8206 51.1257C33.8378 51.1192 33.8551 51.114 33.8727 51.1088C34.0764 51.0508 34.2797 50.9889 34.4863 50.9264L34.8447 50.8176C35.0233 50.7635 35.1992 50.7101 35.3794 50.6606C37.0334 50.1577 38.778 49.6437 40.5833 49.1219C43.9115 48.1513 47.3551 47.18 50.8162 46.2347C50.827 46.2308 50.8381 46.2282 50.8488 46.2249V46.2243C53.9216 45.382 57.0302 44.5546 60.0883 43.7664C62.8205 43.057 65.3703 42.4107 67.8826 41.7906C69.5454 41.3769 71.2381 40.965 72.9607 40.5548C76.9549 39.5867 81.1242 38.6187 85.3485 37.678C88.8849 36.8884 92.3927 36.1289 95.7737 35.4214C109.016 32.6449 122.599 30.1362 136.146 27.9643C235.679 12.0001 391.417 4.69409 568.115 60.554C568.266 60.602 568.396 60.7027 568.48 60.8379C568.565 60.9732 568.597 61.1341 568.573 61.2915C568.549 61.4489 568.469 61.5925 568.348 61.6962C568.227 61.7999 568.073 61.8569 567.914 61.8569Z" fill="#CCCCCC"/>
<path d="M175.503 280.066C175.272 279.39 174.883 278.78 174.368 278.285C174.179 278.109 173.973 277.95 173.755 277.811C172.013 276.65 169.41 276.39 167.755 277.811C167.588 277.956 167.434 278.114 167.295 278.285C166.801 278.892 166.294 279.485 165.773 280.066C164.919 281.04 164.045 281.98 163.13 282.894C162.87 283.148 162.61 283.408 162.343 283.661C162.189 283.815 162.036 283.962 161.883 284.108C161.295 284.669 160.695 285.209 160.087 285.743C159.767 286.03 159.447 286.31 159.12 286.583C158.633 286.99 158.145 287.397 157.652 287.791C157.605 287.824 157.558 287.857 157.511 287.897C157.498 287.904 157.491 287.917 157.478 287.924C157.471 287.924 157.465 287.924 157.458 287.937C157.44 287.945 157.424 287.956 157.411 287.971C157.265 288.071 157.164 288.137 157.091 288.198C157.118 288.184 157.144 288.164 157.171 288.151C157.051 288.244 156.924 288.338 156.804 288.431C155.636 289.292 154.442 290.119 153.22 290.893C150.199 292.826 147.025 294.51 143.731 295.929C143.511 296.016 143.284 296.109 143.057 296.196C134.431 299.728 125.074 301.107 115.796 300.212C114.848 300.138 113.901 300.038 112.953 299.911C111.859 299.751 110.771 299.558 109.69 299.338C105.574 298.517 101.547 297.302 97.6644 295.709C92.8076 293.486 88.1883 290.777 83.8771 287.624C83.2098 287.15 82.5358 286.677 81.8618 286.216C82.6292 284.335 83.3833 282.454 84.1174 280.559C84.4844 279.646 84.8381 278.732 85.1852 277.811C87.9146 270.72 90.4771 263.562 92.933 256.378C95.4155 249.1 97.7578 241.78 99.96 234.418C100.187 233.671 100.407 232.923 100.621 232.176C101.775 228.287 102.883 224.389 103.944 220.482C104.044 220.102 104.151 219.729 104.244 219.348C104.551 218.228 104.852 217.107 105.145 215.986C105.813 213.458 104.304 210.436 101.648 209.829C100.37 209.502 99.0135 209.683 97.8657 210.335C96.718 210.987 95.8682 212.059 95.4955 213.325C95.2086 214.405 94.9216 215.479 94.628 216.56C93.2199 221.783 91.7384 226.989 90.1835 232.176C89.9566 232.923 89.7297 233.671 89.5028 234.418C86.0727 245.718 82.3067 256.905 78.2048 267.978C77.7109 269.319 77.2104 270.656 76.7032 271.988C76.4563 272.641 76.2094 273.295 75.9558 273.949C75.4687 275.236 74.9682 276.524 74.4677 277.811C74.1807 278.565 73.887 279.319 73.5935 280.066C73.3999 280.539 73.2131 281.013 73.0262 281.48C71.1235 280.797 69.1522 280.323 67.147 280.066L66.8266 280.026C65.272 279.839 63.6998 279.852 62.1486 280.066C59.8269 280.337 57.5931 281.114 55.6051 282.343C53.6171 283.571 51.9233 285.222 50.6436 287.177C47.4604 292.187 47.5005 299.351 51.965 303.607C56.5629 307.99 63.5233 307.956 68.9354 305.215C71.8035 303.664 74.2218 301.398 75.9558 298.637C76.6201 297.637 77.2305 296.601 77.7844 295.535C77.9245 295.629 78.0646 295.722 78.2048 295.822C78.7386 296.196 79.2725 296.576 79.7997 296.95C82.8715 299.174 86.1086 301.161 89.4828 302.893C96.7381 306.499 104.548 308.86 112.586 309.878C112.766 309.898 112.94 309.924 113.12 309.944C114.008 310.058 114.902 310.144 115.796 310.218C128.624 311.184 141.467 308.56 152.887 302.64C153.854 302.139 154.813 301.615 155.763 301.065C157.238 300.212 158.679 299.304 160.087 298.344C160.855 297.823 161.602 297.296 162.343 296.743C165.58 294.36 168.597 291.692 171.359 288.771C172.406 287.671 173.41 286.534 174.368 285.362C175.275 284.404 175.798 283.146 175.837 281.827C175.831 281.225 175.718 280.628 175.503 280.066ZM64.9981 295.956C65.1383 295.856 65.2784 295.749 65.4119 295.642C65.3718 295.742 65.1783 295.856 64.9981 295.956H64.9981ZM67.1403 293.801C66.9868 293.974 66.8466 294.148 66.6931 294.321C66.2262 294.844 65.7246 295.334 65.1916 295.789C65.1182 295.856 65.0382 295.922 64.9581 295.982C64.9572 295.982 64.9563 295.982 64.9555 295.983C64.9547 295.983 64.9539 295.984 64.9533 295.984C64.9527 295.985 64.9522 295.986 64.9519 295.986C64.9515 295.987 64.9514 295.988 64.9514 295.989C64.855 296.032 64.7614 296.081 64.6711 296.136C64.3841 296.309 64.0905 296.469 63.7902 296.616C63.2023 296.832 62.5974 297 61.9817 297.116C61.5087 297.151 61.0339 297.155 60.5603 297.13H60.547C60.2201 297.057 59.8971 296.968 59.5793 296.863C59.4192 296.783 59.2657 296.689 59.1122 296.596C59.0521 296.543 58.9987 296.489 58.9654 296.456C58.9002 296.396 58.8399 296.332 58.7852 296.263C58.7852 296.262 58.7851 296.261 58.7847 296.26C58.7844 296.259 58.7839 296.258 58.7833 296.258C58.7827 296.257 58.7819 296.257 58.7811 296.256C58.7803 296.256 58.7794 296.256 58.7785 296.256C58.7051 296.122 58.625 295.989 58.5517 295.856C58.5478 295.852 58.5455 295.847 58.545 295.842C58.4916 295.675 58.4449 295.502 58.4048 295.329C58.3904 295.024 58.3926 294.719 58.4115 294.415C58.501 293.988 58.6215 293.569 58.7719 293.161C58.907 292.871 59.0608 292.59 59.2323 292.32C59.2457 292.293 59.3124 292.187 59.3858 292.067C59.3925 292.06 59.3925 292.06 59.3925 292.053C59.4926 291.94 59.5927 291.82 59.6995 291.713C59.8797 291.513 60.0732 291.339 60.2667 291.159C60.6431 290.913 61.033 290.688 61.4346 290.486C62.0716 290.259 62.7254 290.083 63.3899 289.959C64.3697 289.881 65.3546 289.89 66.3328 289.985C67.2594 290.146 68.1737 290.371 69.0689 290.659C68.5263 291.712 67.9086 292.724 67.2204 293.688C67.1937 293.728 67.167 293.768 67.1403 293.801ZM59.7195 291.606C59.6607 291.701 59.5913 291.788 59.5126 291.866C59.5655 291.768 59.6356 291.68 59.7195 291.606Z" fill="#404040"/>
<path d="M155.443 211.937C155.383 214.032 155.323 216.126 155.262 218.221C155.136 222.871 155.004 227.522 154.869 232.176C154.729 237.413 154.582 242.647 154.428 247.879C154.355 250.581 154.279 253.283 154.201 255.984C153.994 263.262 153.79 270.538 153.587 277.811C153.567 278.565 153.541 279.312 153.521 280.066C153.421 283.675 153.32 287.284 153.22 290.892C153.107 294.808 152.996 298.724 152.887 302.64C152.807 305.575 152.724 308.512 152.64 311.452C152.039 332.752 151.439 354.051 150.838 375.351C150.813 376.67 150.277 377.928 149.344 378.861C148.411 379.794 147.152 380.329 145.833 380.354C144.509 380.344 143.242 379.813 142.306 378.877C141.369 377.941 140.839 376.675 140.828 375.351C141.162 363.37 141.5 351.39 141.842 339.409C142.143 328.576 142.447 317.742 142.756 306.909C142.857 303.34 142.957 299.769 143.057 296.196C143.21 290.819 143.362 285.442 143.511 280.066C143.531 279.312 143.557 278.565 143.577 277.811C143.591 277.151 143.611 276.497 143.631 275.837C143.924 265.397 144.218 254.955 144.512 244.511C144.632 240.401 144.747 236.29 144.859 232.176C144.992 227.487 145.126 222.799 145.259 218.114C145.319 216.053 145.372 213.998 145.433 211.937C145.458 210.618 145.993 209.36 146.927 208.428C147.86 207.495 149.118 206.959 150.438 206.934C151.762 206.945 153.029 207.475 153.965 208.411C154.901 209.347 155.432 210.614 155.443 211.937Z" fill="#404040"/>
<path d="M430.005 213.326C424.757 233.191 418.484 252.772 411.212 271.989C409.205 277.29 407.152 282.58 404.958 287.807L405.463 286.612C404.483 289.101 403.232 291.475 401.732 293.691C401.63 293.833 401.527 293.975 401.421 294.115C401.939 293.452 402.038 293.321 401.716 293.722C401.547 293.923 401.379 294.124 401.204 294.32C400.737 294.842 400.236 295.333 399.703 295.789C399.569 295.904 399.433 296.016 399.295 296.126L399.921 295.639C399.848 295.811 399.338 296.038 399.18 296.135C398.666 296.445 398.129 296.717 397.575 296.948L398.771 296.443C397.862 296.809 396.915 297.069 395.947 297.218L397.277 297.039C396.326 297.17 395.363 297.181 394.409 297.07L395.74 297.248C394.96 297.141 394.196 296.935 393.468 296.637L394.663 297.141C394.274 296.972 393.9 296.772 393.543 296.543C393.362 296.425 392.805 296.004 393.533 296.56C394.289 297.137 393.63 296.609 393.474 296.456C393.345 296.328 393.228 296.189 393.101 296.059C392.512 295.455 393.766 297.097 393.366 296.391C393.152 296.038 392.956 295.673 392.78 295.3L393.284 296.495C393.055 295.926 392.892 295.332 392.798 294.726L392.977 296.056C392.882 295.302 392.881 294.539 392.975 293.785L392.796 295.115C392.919 294.273 393.142 293.449 393.46 292.66L392.956 293.855C393.178 293.324 393.441 292.812 393.742 292.322C393.88 292.068 394.043 291.829 394.228 291.607C394.261 291.618 393.381 292.616 393.848 292.112C393.97 291.98 394.084 291.841 394.208 291.71C394.405 291.501 394.617 291.31 394.825 291.111C395.522 290.448 393.85 291.756 394.654 291.231C395.237 290.848 395.851 290.513 396.489 290.231L395.293 290.735C396.362 290.296 397.482 289.996 398.627 289.841L397.296 290.02C398.73 289.855 400.178 289.872 401.608 290.071L400.277 289.892C402.087 290.167 403.856 290.664 405.544 291.373L404.348 290.869C407.945 292.412 411.13 294.704 414.31 296.951C417.381 299.174 420.618 301.161 423.991 302.893C431.246 306.499 439.057 308.86 447.095 309.879C458.624 311.291 470.323 309.786 481.118 305.502C491.914 301.219 501.46 294.294 508.881 285.363C509.787 284.403 510.308 283.144 510.347 281.825C510.338 280.5 509.812 279.231 508.881 278.287C507.045 276.603 503.577 276.127 501.803 278.287C500.123 280.338 498.316 282.283 496.393 284.109C495.496 284.96 494.574 285.785 493.629 286.584C493.089 287.04 492.542 287.487 491.987 287.925C491.724 288.133 490.907 288.685 492.162 287.794C491.874 287.998 491.598 288.221 491.314 288.431C487.112 291.528 482.557 294.117 477.746 296.145L478.942 295.641C473.779 297.806 468.357 299.291 462.811 300.059L464.142 299.88C458.437 300.63 452.658 300.621 446.955 299.854L448.286 300.033C442.584 299.25 437.009 297.732 431.698 295.517L432.893 296.021C427.768 293.754 422.905 290.938 418.388 287.622C416.037 285.882 413.558 284.322 410.972 282.956C407.959 281.418 404.696 280.427 401.337 280.029C395.038 279.288 388.619 281.74 385.156 287.18C381.969 292.186 382.01 299.35 386.473 303.607C391.07 307.991 398.031 307.954 403.447 305.212C408.664 302.571 411.798 297.083 414.001 291.909C418.961 280.265 423.351 268.352 427.442 256.379C431.489 244.532 435.159 232.567 438.452 220.481C438.86 218.984 439.261 217.486 439.658 215.986C440.326 213.458 438.816 210.436 436.162 209.831C434.883 209.502 433.525 209.683 432.377 210.334C431.228 210.986 430.378 212.059 430.005 213.326L430.005 213.326Z" fill="#404040"/>
<path d="M479.944 211.937L478.142 275.838L476.35 339.407L475.337 375.352C475.348 376.675 475.879 377.941 476.815 378.877C477.752 379.813 479.018 380.343 480.342 380.355C481.661 380.329 482.92 379.794 483.853 378.861C484.786 377.928 485.322 376.67 485.347 375.352L487.149 311.45L488.941 247.881L489.954 211.937C489.943 210.614 489.412 209.347 488.476 208.412C487.539 207.476 486.273 206.945 484.949 206.934C483.63 206.959 482.371 207.495 481.438 208.427C480.505 209.36 479.969 210.618 479.944 211.937Z" fill="#404040"/>
<path opacity="0.2" d="M306.704 357.51H308.258V286.772H344.513V285.223H308.258V255.375H336.256C335.846 254.853 335.424 254.338 334.989 253.829H308.258V234.115C307.744 233.896 307.226 233.685 306.704 233.486V253.829H276.238V228.57C275.716 228.594 275.202 228.63 274.684 228.674V253.829H250.379V234.983C249.857 235.215 249.343 235.458 248.833 235.712V253.829H228.402V255.375H248.833V285.223H228.402V286.772H248.833V357.51H250.379V286.772C253.571 286.772 256.732 287.4 259.681 288.62C262.63 289.841 265.31 291.631 267.567 293.887C269.824 296.143 271.614 298.821 272.835 301.769C274.056 304.717 274.685 307.877 274.684 311.067V357.51H276.238V286.772H306.704V357.51ZM250.379 285.223V255.375H274.684V285.223H250.379ZM276.238 285.223V255.375H276.848C280.769 255.375 284.651 256.147 288.274 257.647C291.896 259.148 295.188 261.346 297.96 264.118C300.732 266.889 302.931 270.18 304.432 273.801C305.932 277.422 306.704 281.303 306.704 285.223H276.238Z" fill="black"/>
<path d="M297.212 336.3C295.256 345.025 290.569 352.899 283.832 358.781C283.338 359.208 282.845 359.621 282.331 360.028C281.083 360.142 279.844 360.257 278.614 360.375C277.593 360.469 276.585 360.569 275.584 360.662L275.404 360.682L275.277 359.588L274.77 355.159C272.802 351.948 271.583 348.336 271.201 344.59C270.82 340.844 271.287 337.06 272.567 333.519C274.329 328.769 277.519 324.573 280.656 320.411C284.987 314.66 289.198 308.977 289.351 301.966C291.482 304.692 293.254 307.681 294.623 310.858C293.331 311.466 292.171 312.32 291.206 313.373C290.933 313.673 290.659 314.093 290.846 314.454C291.006 314.761 291.406 314.834 291.753 314.874C292.588 314.961 293.429 315.047 294.263 315.134C294.93 315.207 295.597 315.274 296.265 315.348C297.072 317.996 297.62 320.718 297.9 323.473C298.349 327.758 298.117 332.088 297.212 336.3Z" fill="#404040"/>
<path d="M319.368 318.816C315.431 321.678 313.128 325.794 311.34 330.33C309.507 330.917 307.858 331.969 306.555 333.385C306.281 333.686 306.008 334.106 306.195 334.466C306.355 334.773 306.755 334.846 307.102 334.886C307.936 334.973 308.777 335.06 309.612 335.146C307.823 340.51 306.181 346.06 303.018 350.589C300.915 353.58 298.172 356.066 294.99 357.867C294.122 358.361 293.227 358.805 292.307 359.195C288.917 359.455 285.592 359.733 282.331 360.028C281.083 360.142 279.844 360.257 278.614 360.375C277.593 360.469 276.585 360.569 275.584 360.662C275.577 360.295 275.577 359.928 275.584 359.561C275.795 349.788 279.392 340.39 285.761 332.972C286.061 332.625 286.368 332.285 286.682 331.944C289.908 328.499 293.703 325.634 297.9 323.473C304.513 320.035 311.925 318.428 319.368 318.816Z" fill="#4E9FBF"/>
<path d="M279.768 356.953L279.001 359.221L278.614 360.375C277.592 360.469 276.585 360.569 275.584 360.662L275.404 360.682C274.296 360.796 273.195 360.909 272.094 361.022C271.807 360.689 271.52 360.349 271.239 360.002C264.274 351.57 260.93 340.725 261.939 329.837C262.948 318.948 268.228 308.902 276.625 301.893C275.744 306.502 276.772 310.918 278.46 315.301C278.28 315.374 278.106 315.448 277.94 315.528C276.648 316.136 275.487 316.99 274.523 318.042C274.249 318.343 273.975 318.763 274.162 319.123C274.322 319.43 274.723 319.503 275.07 319.543C275.904 319.63 276.745 319.717 277.579 319.804C278.246 319.877 278.914 319.944 279.581 320.017C279.895 320.05 280.208 320.084 280.522 320.117C280.569 320.217 280.609 320.311 280.656 320.411C282.558 324.533 284.606 328.676 285.761 332.972C286.05 334.05 286.277 335.143 286.441 336.247C286.955 339.978 286.622 343.776 285.467 347.361C284.312 350.945 282.364 354.224 279.768 356.953Z" fill="#4E9FBF"/>
<path d="M346.941 260.201C341.196 248.999 332.296 239.574 321.828 232.648C311.326 225.731 299.276 221.519 286.751 220.387C285.109 220.238 283.463 220.151 281.813 220.125C279.863 220.096 250.537 228.551 240.713 235.456C230.895 242.276 222.818 251.308 217.134 261.824C211.461 272.396 208.67 284.275 209.042 296.267C209.529 308.331 212.893 320.104 218.854 330.605C224.734 341.072 233.083 349.945 243.175 356.452C253.41 362.98 263.692 380.29 275.777 380.901C287.953 381.517 301.84 365.188 312.945 360.23C324.05 355.231 333.651 347.41 340.79 337.547C347.728 327.88 352.216 316.676 353.869 304.895C355.587 292.832 354.786 280.391 350.665 268.862C349.608 265.899 348.364 263.006 346.941 260.201C345.754 257.862 342.273 257.001 340.093 258.406C338.971 259.097 338.158 260.194 337.823 261.469C337.489 262.744 337.659 264.098 338.298 265.251C338.995 266.624 339.644 268.02 340.243 269.439L339.739 268.243C342.008 273.697 343.551 279.424 344.328 285.279L344.149 283.949C344.976 290.301 344.961 296.735 344.105 303.083L344.284 301.753C343.418 308.1 341.723 314.307 339.242 320.214L339.747 319.019C338.47 322.032 336.982 324.952 335.294 327.756C334.439 329.173 333.531 330.556 332.571 331.906C332.15 332.499 331.715 333.081 331.277 333.662C330.706 334.419 332.056 332.672 331.466 333.415C331.365 333.542 331.265 333.669 331.164 333.795C330.861 334.174 330.554 334.549 330.242 334.921C328.161 337.402 325.891 339.718 323.451 341.847C322.843 342.378 322.225 342.896 321.597 343.402C321.284 343.655 320.975 343.918 320.649 344.153C320.661 344.144 321.703 343.353 321.086 343.812C320.893 343.956 320.7 344.103 320.506 344.247C319.212 345.205 317.883 346.115 316.519 346.976C313.38 348.953 310.087 350.674 306.672 352.122L307.868 351.617C301.977 354.096 295.785 355.79 289.451 356.655L290.782 356.476C284.452 357.331 278.036 357.342 271.703 356.51L273.034 356.688C267.278 355.916 261.648 354.394 256.287 352.163L257.482 352.667C254.377 351.356 251.383 349.797 248.529 348.004C247.117 347.114 245.742 346.17 244.403 345.17C244.212 345.028 244.022 344.883 243.832 344.74C243.221 344.279 244.271 345.08 244.279 345.085C243.924 344.83 243.582 344.558 243.255 344.268C242.608 343.742 241.972 343.203 241.346 342.653C238.839 340.446 236.499 338.058 234.343 335.508C233.803 334.871 233.275 334.224 232.759 333.567C232.535 333.283 232.127 332.706 233.029 333.92C232.91 333.76 232.787 333.603 232.667 333.445C232.379 333.063 232.096 332.679 231.816 332.292C230.836 330.936 229.904 329.548 229.021 328.126C227.026 324.906 225.284 321.537 223.812 318.047L224.317 319.242C221.908 313.514 220.262 307.496 219.418 301.34L219.597 302.67C218.836 296.996 218.825 291.246 219.565 285.569L219.386 286.899C220.144 281.401 221.624 276.027 223.787 270.916L223.282 272.111C224.643 268.912 226.248 265.821 228.084 262.868C229.003 261.39 229.977 259.948 231.005 258.542C231.239 258.223 231.475 257.905 231.714 257.59C231.93 257.304 232.525 256.594 231.51 257.849C231.61 257.726 231.706 257.599 231.804 257.475C232.368 256.76 232.946 256.056 233.539 255.364C235.779 252.742 238.207 250.285 240.801 248.012C241.457 247.438 242.123 246.875 242.8 246.325C243.107 246.075 243.417 245.828 243.728 245.583C243.853 245.485 243.979 245.389 244.103 245.29C242.77 246.35 243.732 245.579 244.035 245.352C245.429 244.308 246.861 243.316 248.33 242.376C251.595 240.289 255.029 238.48 258.598 236.967L257.402 237.472C262.581 235.298 285.524 230.168 289.697 230.728L288.367 230.549C294.5 231.405 300.495 233.061 306.198 235.474L305.002 234.969C307.892 236.196 310.701 237.606 313.411 239.191C314.765 239.985 316.092 240.821 317.393 241.701C318.009 242.118 318.618 242.544 319.221 242.979C319.522 243.196 319.821 243.416 320.119 243.638C320.284 243.762 320.448 243.887 320.614 244.011C321.307 244.53 319.658 243.258 320.385 243.833C322.819 245.744 325.129 247.805 327.304 250.005C328.372 251.093 329.404 252.215 330.399 253.371C330.909 253.964 331.408 254.566 331.898 255.177C332.141 255.481 332.969 256.579 331.954 255.234C332.202 255.562 332.453 255.889 332.698 256.22C334.807 259.073 336.679 262.094 338.298 265.251C339.494 267.584 342.96 268.454 345.146 267.046C346.269 266.355 347.082 265.258 347.417 263.983C347.751 262.708 347.581 261.353 346.941 260.201Z" fill="#404040"/>
<path d="M288.622 341.848C288.106 341.871 287.594 341.736 287.157 341.459C286.72 341.183 286.379 340.779 286.179 340.302C285.98 339.825 285.932 339.298 286.042 338.793C286.152 338.287 286.414 337.828 286.794 337.477C286.858 337.225 286.903 337.043 286.967 336.79C286.944 336.735 286.921 336.681 286.898 336.626C284.576 331.09 269.758 346.521 269.117 351.723C268.835 354.022 268.954 356.353 269.469 358.612C264.669 348.146 262.177 336.77 262.16 325.256C262.159 322.367 262.32 319.48 262.641 316.609C262.907 314.255 263.276 311.918 263.747 309.597C266.32 297.007 271.843 285.207 279.864 275.165C284.452 275.421 288.472 274.723 288.86 265.836C288.929 264.255 290.102 262.886 290.36 261.329C289.922 261.387 289.477 261.422 289.039 261.451C288.903 261.458 288.759 261.465 288.623 261.473L288.572 261.475C288.09 261.497 287.613 261.379 287.197 261.135C286.781 260.892 286.445 260.534 286.228 260.104C286.011 259.674 285.923 259.19 285.975 258.711C286.026 258.233 286.215 257.779 286.519 257.405C286.708 257.172 286.897 256.94 287.087 256.708C287.374 256.349 287.668 255.997 287.955 255.638C287.988 255.604 288.02 255.568 288.049 255.531C288.379 255.122 288.709 254.72 289.039 254.311C288.437 253.375 287.626 252.592 286.67 252.021C283.361 250.084 278.795 251.426 276.404 254.418C274.006 257.411 273.554 261.609 274.387 265.348C275.206 268.529 276.56 271.548 278.393 274.275C278.213 274.505 278.026 274.727 277.847 274.957C274.566 279.174 271.707 283.703 269.309 288.477C269.988 283.182 261.694 264.057 258.487 260.006C254.634 255.141 246.734 257.264 246.055 263.432C246.049 263.492 246.042 263.552 246.036 263.611C246.512 263.88 246.979 264.165 247.435 264.467C248.008 264.85 248.452 265.396 248.709 266.036C248.966 266.675 249.024 267.377 248.875 268.05C248.726 268.723 248.377 269.335 247.874 269.806C247.371 270.277 246.737 270.586 246.056 270.691L245.986 270.701C239.609 279.803 260.052 303.491 265.169 298.173C262.76 304.995 261.249 312.102 260.674 319.314C260.349 323.569 260.368 327.843 260.732 332.095L260.71 331.945C259.573 322.684 240.069 308.915 234.373 310.062C231.092 310.723 227.86 310.573 228.358 313.881C228.366 313.934 228.374 313.987 228.382 314.04C229.266 314.4 230.127 314.814 230.96 315.281C231.436 315.55 231.902 315.835 232.359 316.137C232.932 316.519 233.376 317.066 233.633 317.706C233.89 318.345 233.948 319.047 233.798 319.72C233.649 320.393 233.3 321.005 232.797 321.476C232.294 321.947 231.661 322.256 230.979 322.361L230.909 322.371C230.859 322.379 230.816 322.386 230.766 322.393C227.863 332.377 249.39 348.489 262.476 343.362H262.484C263.78 348.996 265.66 354.479 268.091 359.724H288.12C288.192 359.502 288.257 359.272 288.321 359.05C286.467 359.166 284.606 359.055 282.779 358.72C284.265 356.897 285.751 355.06 287.237 353.237C287.271 353.203 287.302 353.167 287.331 353.129C288.085 352.196 288.846 351.271 289.599 350.338L289.6 350.337C289.64 347.477 289.312 344.624 288.623 341.848L288.622 341.848ZM265.685 296.745L265.696 296.73L265.685 296.759V296.745ZM261.249 336.724L261.076 336.337C261.084 336.057 261.084 335.777 261.076 335.49C261.076 335.411 261.062 335.332 261.062 335.253C261.127 335.748 261.184 336.243 261.256 336.738L261.249 336.724Z" fill="#404040"/>
<path d="M63.5634 300.185C67.6176 300.185 70.9041 296.9 70.9041 292.847C70.9041 288.794 67.6176 285.509 63.5634 285.509C59.5092 285.509 56.2227 288.794 56.2227 292.847C56.2227 296.9 59.5092 300.185 63.5634 300.185Z" fill="#404040"/>
<path d="M151.652 380.234C155.706 380.234 158.993 376.949 158.993 372.896C158.993 368.844 155.706 365.558 151.652 365.558C147.598 365.558 144.312 368.844 144.312 372.896C144.312 376.949 147.598 380.234 151.652 380.234Z" fill="#404040"/>
<path d="M485.989 380.234C490.044 380.234 493.33 376.949 493.33 372.896C493.33 368.844 490.044 365.558 485.989 365.558C481.935 365.558 478.649 368.844 478.649 372.896C478.649 376.949 481.935 380.234 485.989 380.234Z" fill="#404040"/>
<path d="M504.008 286.843C508.062 286.843 511.348 283.558 511.348 279.505C511.348 275.453 508.062 272.168 504.008 272.168C499.954 272.168 496.667 275.453 496.667 279.505C496.667 283.558 499.954 286.843 504.008 286.843Z" fill="#404040"/>
<path d="M482.653 218.801C486.707 218.801 489.993 215.516 489.993 211.464C489.993 207.411 486.707 204.126 482.653 204.126C478.599 204.126 475.312 207.411 475.312 211.464C475.312 215.516 478.599 218.801 482.653 218.801Z" fill="#404040"/>
<path d="M176.344 279.505C176.339 281.38 175.614 283.181 174.319 284.536C173.023 285.89 171.256 286.695 169.383 286.784C167.51 286.873 165.674 286.238 164.256 285.012C162.838 283.785 161.946 282.061 161.765 280.195C161.583 278.329 162.126 276.466 163.281 274.989C164.436 273.513 166.115 272.536 167.97 272.263C169.825 271.989 171.714 272.439 173.247 273.519C174.78 274.599 175.838 276.226 176.204 278.065C176.298 278.539 176.345 279.022 176.344 279.505Z" fill="#404040"/>
<path d="M323.159 240.148C327.213 240.148 330.499 236.863 330.499 232.81C330.499 228.757 327.213 225.472 323.159 225.472C319.104 225.472 315.818 228.757 315.818 232.81C315.818 236.863 319.104 240.148 323.159 240.148Z" fill="#404040"/>
<path d="M250.419 232.81C250.414 234.684 249.689 236.485 248.393 237.84C247.098 239.195 245.33 240 243.457 240.089C241.584 240.177 239.749 239.543 238.331 238.316C236.913 237.09 236.021 235.365 235.839 233.5C235.658 231.634 236.201 229.77 237.356 228.294C238.511 226.817 240.19 225.841 242.045 225.567C243.9 225.294 245.789 225.743 247.322 226.823C248.854 227.903 249.913 229.531 250.278 231.369C250.373 231.844 250.42 232.326 250.419 232.81Z" fill="#404040"/>
<path d="M155.656 211.464C155.652 213.338 154.927 215.139 153.631 216.494C152.335 217.849 150.568 218.654 148.695 218.742C146.822 218.831 144.986 218.196 143.568 216.97C142.15 215.743 141.258 214.019 141.077 212.153C140.896 210.288 141.439 208.424 142.594 206.947C143.749 205.471 145.427 204.495 147.282 204.221C149.137 203.947 151.027 204.397 152.559 205.477C154.092 206.557 155.15 208.184 155.516 210.023C155.61 210.497 155.657 210.98 155.656 211.464Z" fill="#404040"/>
<path d="M399.903 302.853C403.957 302.853 407.243 299.568 407.243 295.515C407.243 291.463 403.957 288.177 399.903 288.177C395.849 288.177 392.562 291.463 392.562 295.515C392.562 299.568 395.849 302.853 399.903 302.853Z" fill="#404040"/>
<path d="M284.453 236.145C290.35 236.145 295.13 231.367 295.13 225.472C295.13 219.578 290.35 214.799 284.453 214.799C278.556 214.799 273.775 219.578 273.775 225.472C273.775 231.367 278.556 236.145 284.453 236.145Z" fill="#404040"/>
<path d="M573.205 380.795L0.794584 381C0.690237 381 0.586909 380.979 0.490505 380.94C0.394102 380.9 0.306512 380.841 0.232728 380.767C0.158944 380.694 0.100407 380.606 0.0604756 380.51C0.0205438 380.413 0 380.31 0 380.206C0 380.101 0.0205438 379.998 0.0604756 379.902C0.100407 379.805 0.158944 379.718 0.232728 379.644C0.306512 379.57 0.394102 379.512 0.490505 379.472C0.586909 379.432 0.690237 379.411 0.794584 379.411L573.205 379.206C573.416 379.207 573.617 379.291 573.766 379.44C573.914 379.589 573.998 379.79 573.998 380.001C573.998 380.211 573.914 380.413 573.766 380.562C573.617 380.71 573.416 380.794 573.205 380.795Z" fill="#CACACA"/>
</svg>
