<svg width="574" height="381" viewBox="0 0 574 381" fill="none" xmlns="http://www.w3.org/2000/svg">
<g clip-path="url(#clip0_921_2964)">
<path opacity="0.1" d="M574 244.707C574.01 255.03 572.853 265.315 570.555 275.336C569.781 278.712 568.883 282.018 567.86 285.254C566.607 289.248 565.156 293.167 563.512 296.992C562.684 298.928 561.808 300.824 560.886 302.683C560.901 313.268 558.881 323.742 554.955 333.443C547.857 350.847 535.2 364.92 519.291 373.096C509.344 378.217 498.474 380.91 487.453 380.984H108.965C92.1249 381.023 75.576 376.249 61.0005 367.148L60.7763 367.011C58.7002 365.7 56.6761 364.311 54.704 362.846C50.2669 359.538 46.0981 355.829 42.2427 351.76C37.0245 346.257 32.4263 340.109 28.5436 333.443C19.4244 317.817 14.5935 299.723 14.6105 281.257C5.37537 263.771 -0.00974655 242.824 -0.00974655 220.316C-0.00974655 191.917 8.54796 166.011 22.6078 146.4C25.5389 142.303 28.7497 138.448 32.2132 134.867C35.6307 131.324 39.3038 128.079 43.1979 125.164C46.3135 122.83 49.5696 120.722 52.9447 118.854C54.3531 118.081 55.7664 117.35 57.2041 116.671C58.4663 116.066 59.7431 115.504 61.0346 114.972C62.5843 114.338 64.1536 113.754 65.7423 113.221C67.331 112.688 68.8987 112.222 70.4451 111.822C72.7194 111.223 75.0326 110.735 77.3849 110.36C79.3342 110.05 81.2836 109.834 83.233 109.671C84.7827 109.545 86.3471 109.477 87.9212 109.456H88.774C90.509 109.456 92.2342 109.529 93.9447 109.656C94.1251 109.266 94.32 108.872 94.5003 108.488C95.1826 107.084 95.8892 105.685 96.6007 104.318C96.5991 104.305 96.5991 104.293 96.6007 104.281C96.7226 104.039 96.8444 103.802 96.9711 103.571C97.5462 102.451 98.1456 101.341 98.7597 100.242C99.0423 99.7161 99.3201 99.2217 99.6076 98.7274C99.6685 98.6045 99.7352 98.4851 99.8075 98.3698C100.1 97.8438 100.397 97.3179 100.699 96.792C102.204 94.1976 103.768 91.6487 105.392 89.1454L105.807 88.5038C106.06 88.1147 106.294 87.736 106.577 87.3469C107.249 86.3319 107.941 85.3116 108.638 84.3124C109.125 83.5972 109.613 82.8872 110.139 82.2088C111.406 80.4558 112.706 78.7028 114.038 76.9498C115.37 75.1968 116.754 73.4666 118.19 71.7591C118.385 71.5225 118.58 71.2911 118.785 71.0597L120.865 68.609C120.968 68.4933 121.056 68.3881 121.153 68.2829C121.402 67.9937 121.64 67.7044 121.908 67.4257C123.024 66.1478 124.17 64.8961 125.32 63.6497C131.173 57.3586 137.409 51.4958 143.985 46.1004C144.243 45.8795 144.506 45.6691 144.765 45.4588C146.003 44.4543 147.26 43.4604 148.517 42.4822C155.433 37.1282 162.662 32.2623 170.16 27.9147C170.677 27.5939 171.203 27.2941 171.734 26.9996C178.456 23.1622 185.369 19.7281 192.441 16.713C196.296 15.0669 200.239 13.5208 204.206 12.1061C206.847 11.17 209.498 10.2812 212.183 9.44504C216.381 8.14081 220.608 6.97155 224.864 5.93728C237.403 2.90117 250.159 1.02565 262.994 0.331165C266.892 0.117298 270.835 0.00686012 274.821 -0.000151904C294.057 -0.0276323 313.217 2.58784 331.84 7.78319C332.033 8.0972 332.296 8.35319 332.606 8.52707C332.915 8.70096 333.261 8.78701 333.609 8.77714H335.247C335.958 8.9875 336.665 9.19787 337.376 9.41875C341.35 10.6529 345.266 12.0009 349.126 13.4629L350.101 13.8416C359.627 17.4971 368.896 21.8911 377.836 26.9891C385.894 31.5737 393.652 36.7466 401.057 42.4717C402.198 43.3552 403.322 44.2457 404.43 45.1432C405.775 44.2142 407.143 43.3236 408.533 42.4717C413.903 39.1713 419.607 36.5474 425.532 34.6515C437.919 30.6958 451.026 30.1426 463.661 33.0422C479.865 36.7499 494.534 45.9531 506.382 59.0428C511.205 64.3985 515.499 70.2818 519.194 76.5974C519.462 77.0497 519.73 77.5072 519.988 77.97C523.163 83.5598 525.892 89.4307 528.146 95.5194C528.229 95.7455 528.312 95.9559 528.385 96.1768C530.466 101.878 532.143 107.741 533.405 113.716C533.463 114.021 533.531 114.32 533.59 114.625C534.769 120.407 535.57 126.272 535.987 132.175C535.987 132.385 535.987 132.601 536.026 132.822C536.231 135.875 536.335 138.961 536.338 142.077C536.338 144.865 536.251 147.631 536.09 150.376C536.09 150.676 536.051 150.986 536.026 151.297C535.983 152.091 535.919 152.874 535.856 153.674C539.578 156.913 543.061 160.46 546.275 164.281C547.695 165.953 549.069 167.689 550.398 169.487C554.446 174.962 558.003 180.838 561.022 187.037C569.263 203.824 574 223.571 574 244.707Z" fill="#BCE7FF"/>
<path opacity="0.1" d="M518.931 371.15C518.931 374.742 507.463 378.108 487.453 381H108.965C92.1249 381.039 75.576 376.265 61.0005 367.164L60.7763 367.027C66.5269 364.765 76.9073 362.657 91.0353 360.753L91.6689 360.669C98.0043 359.832 105.085 359.038 112.824 358.286C113.019 358.286 113.219 358.255 113.414 358.228C119.555 357.639 126.086 357.087 133.01 356.572C133.229 356.572 133.444 356.53 133.663 356.519C136.334 356.312 139.06 356.116 141.841 355.93L142.913 355.857C163.162 354.5 186.179 353.416 211.141 352.701H211.17C214.666 352.596 218.199 352.503 221.769 352.423C225.74 352.321 229.759 352.231 233.826 352.154C236.931 352.081 240.074 352.028 243.227 351.975H243.3C257.526 351.744 272.224 351.628 287.253 351.628C324.418 351.628 359.546 352.359 390.672 353.674H390.76C395.545 353.874 400.243 354.095 404.824 354.321L408.723 354.521C413.892 354.787 418.928 355.073 423.831 355.378C481.483 358.917 518.931 364.666 518.931 371.15Z" fill="#4E9FBF"/>
<g opacity="0.2">
<path d="M331.528 349.214C331.513 349.782 331.452 350.346 331.348 350.903C327.956 350.321 324.545 349.795 321.114 349.325C321.114 349.178 321.114 349.025 321.114 348.873C321.146 347.296 321.566 345.756 322.332 344.413C323.336 342.699 324.862 341.626 326.543 341.684C328.224 341.741 329.681 342.914 330.583 344.686C331.265 346.079 331.591 347.641 331.528 349.214Z" fill="#3F3D56"/>
<path d="M331.808 340.228C331.927 336.161 329.69 332.784 326.812 332.686C323.934 332.588 321.504 335.805 321.384 339.872C321.265 343.939 323.502 347.316 326.381 347.414C329.259 347.512 331.689 344.295 331.808 340.228Z" fill="#3F3D56"/>
<path d="M332.074 331.224C332.193 327.157 329.956 323.78 327.078 323.682C324.199 323.584 321.769 326.801 321.65 330.869C321.531 334.936 323.768 338.312 326.647 338.411C329.525 338.509 331.955 335.291 332.074 331.224Z" fill="#3F3D56"/>
<path d="M332.335 322.22C332.454 318.153 330.217 314.777 327.339 314.678C324.46 314.58 322.03 317.798 321.911 321.865C321.792 325.932 324.029 329.309 326.908 329.407C329.786 329.505 332.216 326.288 332.335 322.22Z" fill="#3F3D56"/>
<path d="M332.596 313.217C332.715 309.15 330.478 305.773 327.6 305.675C324.721 305.577 322.291 308.794 322.172 312.861C322.053 316.928 324.29 320.305 327.169 320.403C330.047 320.501 332.477 317.284 332.596 313.217Z" fill="#3F3D56"/>
<path d="M309.647 250.745C308.96 249.742 308.342 248.687 307.795 247.589L321.567 245.628L306.742 245.244C305.419 241.857 304.75 238.215 304.776 234.541C304.802 230.866 305.523 227.235 306.893 223.871L326.445 235.678L308.536 220.511C310.342 217.357 312.732 214.64 315.556 212.528C318.38 210.416 321.576 208.955 324.947 208.236C328.317 207.517 331.789 207.556 335.145 208.35C338.501 209.145 341.669 210.677 344.451 212.852C347.234 215.026 349.571 217.797 351.316 220.99C353.062 224.183 354.179 227.731 354.597 231.41C355.015 235.09 354.725 238.824 353.746 242.377C352.768 245.931 351.12 249.229 348.907 252.065C349.974 253.624 350.881 255.305 351.612 257.077L333.536 266.438L352.703 260.216C353.91 264.514 354.105 269.069 353.269 273.469C352.434 277.868 350.594 281.973 347.918 285.412C350.7 289.486 352.365 294.324 352.72 299.371C353.075 304.417 352.107 309.47 349.926 313.951C347.745 318.432 344.44 322.161 340.388 324.71C336.336 327.259 331.701 328.527 327.013 328.367C322.325 328.208 317.773 326.628 313.878 323.808C309.983 320.988 306.902 317.043 304.987 312.422C303.072 307.802 302.401 302.693 303.05 297.681C303.699 292.668 305.642 287.953 308.657 284.076C305.333 279.207 303.621 273.273 303.798 267.228C303.975 261.183 306.03 255.378 309.632 250.745H309.647Z" fill="#4E9FBF"/>
<path opacity="0.1" d="M353.766 268.93C353.595 274.979 351.534 280.787 347.918 285.412C350.7 289.486 352.365 294.324 352.72 299.371C353.075 304.417 352.107 309.47 349.926 313.951C347.745 318.432 344.44 322.161 340.388 324.71C336.336 327.259 331.701 328.527 327.013 328.367C322.325 328.208 317.773 326.628 313.878 323.808C309.983 320.988 306.902 317.043 304.987 312.422C303.072 307.802 302.401 302.693 303.05 297.681C303.699 292.668 305.642 287.953 308.657 284.076C305.456 279.38 353.853 265.906 353.766 268.93Z" fill="black"/>
</g>
<g opacity="0.2">
<path d="M257.453 349.214C257.437 349.782 257.377 350.346 257.272 350.903C253.88 350.321 250.469 349.795 247.038 349.325C247.038 349.178 247.038 349.025 247.038 348.873C247.07 347.296 247.49 345.756 248.256 344.413C249.26 342.699 250.786 341.626 252.467 341.684C254.148 341.741 255.605 342.914 256.507 344.686C257.189 346.079 257.515 347.641 257.453 349.214Z" fill="#3F3D56"/>
<path d="M257.727 340.23C257.846 336.163 255.609 332.786 252.731 332.688C249.852 332.59 247.422 335.807 247.303 339.874C247.184 343.942 249.421 347.318 252.3 347.416C255.178 347.515 257.608 344.297 257.727 340.23Z" fill="#3F3D56"/>
<path d="M257.993 331.226C258.112 327.159 255.875 323.783 252.997 323.684C250.118 323.586 247.688 326.804 247.569 330.871C247.45 334.938 249.687 338.315 252.565 338.413C255.444 338.511 257.874 335.293 257.993 331.226Z" fill="#3F3D56"/>
<path d="M258.254 322.223C258.373 318.155 256.136 314.779 253.258 314.681C250.379 314.583 247.949 317.8 247.83 321.867C247.711 325.934 249.948 329.311 252.826 329.409C255.705 329.507 258.135 326.29 258.254 322.223Z" fill="#3F3D56"/>
<path d="M258.515 313.219C258.634 309.152 256.397 305.775 253.519 305.677C250.64 305.579 248.21 308.796 248.091 312.863C247.972 316.931 250.209 320.307 253.087 320.405C255.966 320.504 258.396 317.286 258.515 313.219Z" fill="#3F3D56"/>
<path d="M235.571 250.745C234.885 249.742 234.266 248.687 233.719 247.589L247.491 245.628L232.666 245.244C231.343 241.857 230.674 238.215 230.7 234.541C230.726 230.866 231.447 227.235 232.817 223.871L252.37 235.678L234.46 220.511C236.266 217.357 238.656 214.64 241.48 212.528C244.304 210.416 247.501 208.955 250.871 208.236C254.241 207.517 257.713 207.556 261.069 208.35C264.425 209.145 267.593 210.677 270.375 212.852C273.158 215.026 275.495 217.797 277.24 220.99C278.986 224.183 280.103 227.731 280.521 231.41C280.939 235.09 280.65 238.824 279.671 242.377C278.692 245.931 277.044 249.229 274.831 252.065C275.899 253.624 276.805 255.305 277.536 257.077L259.46 266.438L278.627 260.216C279.835 264.514 280.029 269.069 279.193 273.469C278.358 277.868 276.518 281.973 273.842 285.412C276.625 289.486 278.289 294.324 278.644 299.371C278.999 304.417 278.031 309.47 275.85 313.951C273.669 318.432 270.364 322.161 266.312 324.71C262.26 327.259 257.625 328.527 252.937 328.367C248.249 328.208 243.697 326.628 239.802 323.808C235.907 320.988 232.826 317.043 230.911 312.422C228.996 307.802 228.325 302.693 228.974 297.681C229.623 292.668 231.566 287.953 234.582 284.076C231.257 279.207 229.546 273.273 229.722 267.228C229.899 261.183 231.954 255.378 235.556 250.745H235.571Z" fill="#4E9FBF"/>
<path opacity="0.1" d="M279.69 268.93C279.519 274.979 277.458 280.787 273.842 285.412C276.625 289.486 278.289 294.324 278.644 299.371C278.999 304.417 278.031 309.47 275.85 313.951C273.669 318.432 270.364 322.161 266.312 324.71C262.26 327.259 257.625 328.527 252.937 328.367C248.249 328.208 243.697 326.628 239.802 323.808C235.907 320.988 232.826 317.043 230.911 312.422C228.996 307.802 228.325 302.693 228.974 297.681C229.623 292.668 231.566 287.953 234.582 284.076C231.38 279.38 279.778 265.906 279.69 268.93Z" fill="black"/>
</g>
<g opacity="0.2">
<path d="M459.797 354.968C459.759 356.043 459.64 357.112 459.441 358.165C452.91 357.04 446.333 356.034 439.708 355.147C439.708 354.863 439.708 354.574 439.708 354.279C439.77 351.242 440.581 348.278 442.057 345.691C444.007 342.394 446.931 340.327 450.162 340.432C453.393 340.537 456.205 342.804 457.959 346.217C459.282 348.906 459.917 351.927 459.797 354.968Z" fill="#3F3D56"/>
<path d="M460.327 337.653C460.556 329.821 456.247 323.318 450.703 323.129C445.159 322.94 440.478 329.136 440.249 336.969C440.019 344.801 444.328 351.304 449.872 351.493C455.417 351.682 460.097 345.486 460.327 337.653Z" fill="#3F3D56"/>
<path d="M460.833 320.319C461.063 312.487 456.754 305.984 451.21 305.795C445.665 305.606 440.984 311.802 440.755 319.635C440.526 327.467 444.834 333.97 450.379 334.159C455.923 334.348 460.604 328.152 460.833 320.319Z" fill="#3F3D56"/>
<path d="M461.345 302.986C461.574 295.153 457.265 288.651 451.721 288.462C446.176 288.272 441.496 294.469 441.266 302.301C441.037 310.133 445.346 316.636 450.89 316.825C456.435 317.014 461.115 310.818 461.345 302.986Z" fill="#3F3D56"/>
<path d="M461.28 284.863C461.498 277.027 457.177 270.528 451.63 270.349C446.083 270.169 441.409 276.376 441.192 284.213C440.974 292.049 445.294 298.547 450.841 298.727C456.388 298.906 461.062 292.699 461.28 284.863Z" fill="#3F3D56"/>
<path d="M417.666 165.401C416.351 163.471 415.161 161.445 414.103 159.338L440.615 155.562L412.081 154.82C409.532 148.302 408.243 141.29 408.291 134.216C408.34 127.141 409.726 120.151 412.364 113.674L450.011 136.398L415.536 107.2C419.022 101.144 423.626 95.9269 429.062 91.875C434.498 87.8232 440.649 85.0229 447.132 83.6487C453.615 82.2745 460.29 82.3559 466.743 83.8878C473.195 85.4197 479.286 88.3693 484.635 92.5526C489.985 96.736 494.479 102.064 497.837 108.203C501.195 114.343 503.345 121.163 504.154 128.239C504.962 135.315 504.412 142.495 502.536 149.331C500.66 156.167 497.5 162.513 493.252 167.973C495.306 170.978 497.052 174.214 498.462 177.623L463.661 195.657L500.558 183.666C502.883 191.93 503.262 200.69 501.659 209.152C500.057 217.613 496.524 225.511 491.381 232.128C496.737 239.972 499.94 249.284 500.623 258.999C501.306 268.715 499.442 278.441 495.243 287.067C491.045 295.693 484.682 302.87 476.881 307.777C469.081 312.685 460.159 315.124 451.134 314.817C442.11 314.51 433.348 311.469 425.849 306.041C418.351 300.613 412.42 293.018 408.733 284.124C405.047 275.23 403.754 265.396 405.002 255.746C406.251 246.096 409.991 237.02 415.795 229.556C409.398 220.183 406.105 208.762 406.444 197.127C406.783 185.492 410.736 174.317 417.666 165.396V165.401Z" fill="#4E9FBF"/>
<path opacity="0.1" d="M502.609 200.405C502.29 212.043 498.34 223.224 491.401 232.138C496.757 239.982 499.959 249.294 500.642 259.01C501.325 268.725 499.461 278.452 495.263 287.078C491.064 295.704 484.701 302.881 476.901 307.788C469.101 312.695 460.178 315.135 451.154 314.828C442.129 314.521 433.367 311.48 425.869 306.052C418.371 300.624 412.439 293.029 408.753 284.134C405.066 275.24 403.773 265.406 405.022 255.756C406.271 246.107 410.011 237.031 415.814 229.567C409.605 220.516 502.78 194.584 502.609 200.405Z" fill="black"/>
</g>
<path d="M76.9122 355.893L82.0244 355.878H89.2322L98.3454 196.119L188.596 33.5998L184.673 29.056V17.5493L87.0684 192.354L76.9122 355.893Z" fill="#F1C0C0"/>
<path opacity="0.1" d="M82.5702 355.878H89.2321L98.3454 196.119L188.596 33.5998L184.673 29.056L91.5811 193.684L82.5702 355.878Z" fill="black"/>
<path d="M61.8484 357.224L295.699 376.535L295.899 376.551L522.215 361.531L522.386 361.521V351.208L273.013 346.269L64.9626 346.054H63.442L63.2764 347.211L61.8484 357.224Z" fill="#F1C0C0"/>
<path opacity="0.1" d="M61.8484 357.224L295.699 376.535L295.899 376.551L522.215 361.531L522.386 361.331V351.423H522.186L295.699 359.585L64.9626 346.054H64.9284L64.5191 346.343L63.2764 347.211L61.8484 357.224Z" fill="black"/>
<path opacity="0.1" d="M61.8484 357.224L295.699 376.535V359.585L64.5191 346.343L63.2764 347.211L61.8484 357.224Z" fill="black"/>
<path d="M184.644 28.8404L287.741 148.252L284.554 358.297L293.311 359.438L293.457 359.459H302.215L303.263 157.271L496.313 226.858L499.568 350.761L506.615 351.613L509.003 351.902L503.477 218.265L301.669 141.809L191.013 17.6703H184.644V28.8404Z" fill="#F1C0C0"/>
<path opacity="0.1" d="M302.468 153.406L303.263 157.271L496.313 226.858L499.568 350.761L506.615 351.613L501.089 224.281L302.468 153.406Z" fill="black"/>
<path opacity="0.1" d="M184.644 28.8404L287.741 148.252L284.554 358.297L293.311 359.438L295.699 141.378L184.644 17.6703V28.8404Z" fill="black"/>
<path d="M302.843 237.702L373.649 252.748L373.674 252.754L497.687 279.117L503.365 276.661L503.345 276.23L502.975 267.684L302.917 224.06L302.843 237.702Z" fill="#F1C0C0"/>
<path opacity="0.1" d="M373.674 252.754L497.687 279.117L503.365 276.661L503.345 276.23L373.674 252.754Z" fill="black"/>
<path d="M378.415 184.36L380.331 298.134L381.32 356.504L390.039 356.188L395.526 355.988L393.82 186.006L390.039 184.649L389.21 184.36H378.415Z" fill="#F1C0C0"/>
<path opacity="0.1" d="M378.493 184.334V184.36L380.331 298.134L381.32 356.504L390.039 356.188V184.334H378.493Z" fill="black"/>
<path d="M241.848 213.416C242.359 213.716 242.848 214.059 243.31 214.442C243.856 214.957 244.346 215.538 244.772 216.172C246.863 219.091 248.792 222.483 248.588 226.164C248.592 226.7 248.498 227.231 248.312 227.727C248.125 228.224 247.85 228.675 247.501 229.057C246.638 229.851 245.401 229.887 244.27 229.887C243.042 229.887 241.75 229.887 240.688 229.204C239.626 228.52 238.739 227.19 237.481 227.221C237.304 227.253 237.123 227.253 236.945 227.221C236.511 227.069 236.424 226.453 236.141 226.064C235.654 225.365 234.625 225.538 233.86 225.843C233.095 226.148 232.247 226.606 231.492 226.253C231.053 226.004 230.695 225.617 230.464 225.144C228.656 221.988 228.271 218.197 227.929 214.531C227.72 212.301 226.121 204.697 230.532 206.427C232.481 207.184 234.304 208.699 236.078 209.809L241.848 213.416Z" fill="#3F3D56"/>
<path d="M237.491 214.168C237.885 214.474 238.362 214.629 238.847 214.608C239.332 214.587 239.797 214.391 240.167 214.052C240.892 213.345 241.355 212.377 241.468 211.328C241.955 211.165 242.204 211.854 242.516 212.275C243.061 212.99 244.173 212.98 244.67 213.742C245.016 214.268 244.938 214.999 245.181 215.593C245.498 216.361 246.283 216.761 246.819 217.381C247.325 218.059 247.691 218.847 247.891 219.69L248.69 222.278C249.073 223.354 249.318 224.48 249.421 225.628C249.472 226.201 249.416 226.78 249.257 227.329C249.098 227.879 248.839 228.39 248.495 228.83C247.423 230.077 245.664 230.208 244.109 230.171C243.59 230.183 243.072 230.118 242.569 229.977C241.19 229.514 240.308 228.015 239.942 226.506C239.577 224.997 239.616 223.414 239.401 221.867C239.17 220.349 238.76 218.868 238.183 217.46C237.754 216.366 236.575 214.736 236.594 213.574C236.945 213.574 237.199 213.921 237.491 214.168Z" fill="#3F3D56"/>
<path d="M239.241 208.841C239.013 208.094 238.88 207.317 238.846 206.532C238.846 204.954 239.514 203.471 240.186 202.062L234.616 202.877C233.943 202.977 233.193 203.124 232.813 203.729C232.668 204.029 232.593 204.362 232.593 204.699C232.593 205.037 232.668 205.37 232.813 205.67C233.092 206.27 233.314 206.899 233.475 207.547C233.488 208.115 233.548 208.68 233.656 209.235C233.829 209.643 234.072 210.013 234.372 210.324C235.966 212.228 237.16 214.473 238.349 216.698C238.315 216.635 241.707 213.8 241.57 212.874C241.492 212.349 240.513 211.718 240.201 211.213C239.77 210.48 239.446 209.68 239.241 208.841Z" fill="#BE6F72"/>
<path d="M287 188.294V193.474L204.8 210.776L200.536 213.563H185.823V210.645L266.585 189.588L287 188.294Z" fill="#F1C0C0"/>
<path opacity="0.1" d="M287 193.474L204.8 210.776L200.536 213.563H185.823L267.185 194.773L287 193.474Z" fill="black"/>
<path d="M221.004 335.346C220.088 334.15 218.824 333.322 217.417 333C216.01 332.677 214.543 332.877 213.256 333.569C212.98 333.709 212.737 333.914 212.544 334.168C212.057 334.905 212.369 335.92 212.412 336.829C212.525 339.049 210.887 340.853 209.415 342.404C208.626 343.235 207.822 344.124 207.466 345.254C207.11 346.385 207.373 347.821 208.329 348.41C208.745 348.635 209.199 348.771 209.664 348.81C211.222 349.137 212.819 349.185 214.391 348.952C215.946 348.631 217.471 347.679 218.144 346.133C218.273 345.713 218.488 345.331 218.772 345.013C219.63 344.282 220.946 345.139 221.92 344.618C222.725 344.187 222.759 343.508 222.768 342.614C222.798 340.143 222.457 337.345 221.004 335.346Z" fill="#4E9FBF"/>
<path d="M232.7 335.252C233.3 336.956 233.383 338.812 233.461 340.632C233.505 341.684 233.534 342.809 233.008 343.698C232.481 344.587 231.453 345.055 230.468 345.275C228.436 345.728 226.082 345.302 224.771 343.561C223.768 342.231 223.558 340.406 223.743 338.681C223.899 337.266 224.23 335.609 223.29 334.605C223.046 334.337 222.729 334.147 222.505 333.858C222.018 333.217 222.096 332.249 222.359 331.46C222.702 330.706 222.959 329.909 223.124 329.088C223.163 328.699 229.723 329.362 230.327 329.683C231.151 330.119 231.024 330.85 231.273 331.734C231.619 332.964 232.281 334.074 232.7 335.252Z" fill="#4E9FBF"/>
<path d="M233.904 259.701C235.191 260.6 235.688 262.367 235.888 264.008C236.438 268.504 235.473 273.048 235.4 277.587C235.332 283.945 237.038 290.419 235.581 296.577C234.708 300.258 235.449 304.466 234.63 308.184C234.387 309.288 233.938 310.329 233.704 311.434C233.217 313.827 233.729 316.33 234.416 318.67C234.635 319.301 234.775 319.961 234.83 320.632C234.797 321.665 234.554 322.677 234.119 323.598L231.195 331.06C230.868 331.897 229.581 332.033 228.758 332.144C227.208 332.344 225.478 332.486 224.245 331.45C223.012 330.414 222.715 328.678 222.525 327.058C222.16 323.949 221.997 320.816 222.037 317.681C222.091 316.864 222.024 316.042 221.838 315.247C221.57 314.347 220.98 313.569 220.819 312.617C220.614 311.386 221.194 310.177 221.409 308.936C221.556 307.802 221.539 306.651 221.36 305.523C221.17 303.84 220.951 302.157 220.702 300.484C220.351 298.144 220.853 295.836 221.189 293.49C221.506 291.286 221.102 289.041 220.702 286.853C220.737 288.629 220.531 290.4 220.093 292.112C219.835 292.948 219.464 293.748 219.24 294.6C218.241 298.423 220.371 302.436 220.069 306.396C219.927 308.247 219.255 310.077 219.445 311.902C219.576 313.238 220.151 314.463 220.546 315.736C220.941 317.008 221.146 318.465 220.546 319.654C218.962 322.883 220.147 327.274 221.565 330.587C221.853 331.175 222.103 331.783 222.315 332.407C222.734 333.9 222.383 335.504 222.496 337.061C222.087 337.133 221.669 337.104 221.273 336.975C220.877 336.847 220.514 336.622 220.21 336.319C219.995 336.078 219.82 335.794 219.61 335.541C219.025 334.939 218.332 334.472 217.573 334.168C217.128 333.9 216.621 333.774 216.111 333.806C215.576 333.967 215.094 334.29 214.722 334.736C214.24 335.194 213.729 335.614 213.192 335.993C212.964 336.183 212.696 336.311 212.412 336.367C212.27 336.391 212.124 336.365 211.995 336.294C211.867 336.224 211.762 336.111 211.696 335.972C211.666 335.885 211.648 335.792 211.642 335.699C211.461 334.111 211.365 332.513 211.355 330.913C211.355 328.163 208.304 326.269 207.919 323.551C207.612 321.358 208.182 319.122 207.992 316.914C207.9 315.778 207.607 314.663 207.627 313.527C207.627 312.791 207.783 312.07 207.836 311.339C207.881 310.528 207.87 309.714 207.802 308.904L207.651 306.364C207.505 303.856 207.344 301.294 206.428 299.001C205.341 296.324 204.698 293.462 204.527 290.545C204.43 288.704 204.493 286.864 204.298 285.018C204.123 283.351 203.733 281.694 203.845 280.022C203.938 278.728 204.332 277.476 204.425 276.183C204.615 273.695 203.738 271.276 203.051 268.894C202.363 266.511 201.857 263.871 202.758 261.573C202.887 261.196 203.102 260.859 203.382 260.595C203.728 260.348 204.121 260.19 204.532 260.132C212.894 258.237 221.464 257.647 229.981 258.381C231.37 258.466 232.717 258.919 233.904 259.701Z" fill="#3F3D56"/>
<path d="M206.238 203.845C210.55 203.845 214.045 200.073 214.045 195.42C214.045 190.767 210.55 186.995 206.238 186.995C201.926 186.995 198.431 190.767 198.431 195.42C198.431 200.073 201.926 203.845 206.238 203.845Z" fill="#BE6F72"/>
<path d="M204.727 205.943C204.839 206.425 204.839 206.929 204.727 207.41C204.604 207.747 204.431 208.06 204.215 208.336C203.46 209.388 202.623 210.37 201.715 211.27C202.178 212.385 203.011 213.273 204.05 213.758C205.081 214.232 206.163 214.566 207.271 214.752C207.824 214.909 208.399 214.952 208.967 214.878C209.49 214.736 209.985 214.494 210.429 214.163L214.766 211.36C215.421 210.977 216.027 210.505 216.569 209.956C217.365 209.073 217.815 207.895 217.827 206.664C217.847 206.443 217.792 206.222 217.671 206.043C217.505 205.887 217.296 205.793 217.076 205.775C215.551 205.412 214.347 204.076 213.665 202.562C213.048 201.009 212.649 199.366 212.481 197.686L207.856 200.316C207.169 200.71 206.486 201.105 205.775 201.447C205.322 201.668 204.405 201.852 204.084 202.299C203.47 203.124 204.566 204.949 204.727 205.943Z" fill="#BE6F72"/>
<path d="M201.745 209.74C201.086 210.323 200.572 211.073 200.248 211.923C199.946 212.974 200.248 214.084 200.521 215.125C201.8 219.564 202.778 224.097 203.445 228.688C203.855 231.844 204.006 235.046 204.206 238.239C204.615 244.749 205.21 255.131 206.004 261.599C208.928 261.741 211.779 260.821 214.679 260.484C220.098 259.864 225.678 261.284 230.985 259.958C229.698 254.473 228.412 245.107 227.125 239.627C226.556 237.468 226.161 235.26 225.946 233.027C225.834 231.423 225.902 229.814 225.922 228.199C225.965 225.044 225.805 221.888 225.644 218.733C225.459 215.052 225.273 211.37 224.464 207.768C224.408 207.309 224.209 206.884 223.899 206.564C223.412 206.18 222.778 206.316 222.198 206.401C220.423 206.644 218.625 206.184 217.14 205.107C216.496 204.634 215.634 204.055 215.034 204.581C214.779 204.898 214.61 205.286 214.547 205.701C214.282 206.445 213.872 207.119 213.346 207.679C212.82 208.239 212.189 208.671 211.496 208.946C210.107 209.489 208.653 209.811 207.178 209.903C206.727 210.008 206.257 209.95 205.838 209.74C205.146 209.283 205.097 207.636 204.225 207.526C203.46 207.431 202.261 209.209 201.745 209.74Z" fill="#3F3D56"/>
<path d="M213.275 222.583C211.477 220.726 210.687 218.034 209.376 215.746C208.484 214.208 207.343 212.854 206.009 211.749C205.338 211.271 204.723 210.708 204.176 210.071C203.713 209.456 203.363 208.636 202.661 208.399C202.371 208.331 202.07 208.34 201.784 208.425C201.498 208.51 201.235 208.669 201.018 208.888C200.589 209.33 200.182 209.797 199.8 210.287C197.734 212.596 194.103 212.917 192.466 215.588C192.024 216.155 191.724 216.833 191.593 217.56C191.122 221.449 192.054 225.384 194.196 228.552C194.61 229.286 195.247 229.843 195.999 230.129C195.897 231.11 196.017 232.103 196.35 233.022C197.252 236.35 198.361 239.609 199.668 242.777C199.356 244.016 199.137 245.281 199.015 246.559C198.674 249.772 198.991 253.032 198.669 256.251C198.406 258.88 197.695 261.442 197.67 264.076C197.67 264.497 197.705 264.997 198.041 265.212C198.22 265.311 198.42 265.357 198.621 265.344L204.615 265.538C208.095 265.649 211.608 265.759 215.034 265.065C215.491 264.992 215.933 264.841 216.345 264.618C217.505 263.919 217.89 262.341 218.075 260.937C218.317 259.115 218.413 257.275 218.363 255.436C219.089 257.913 219.952 260.474 222.145 261.547C223.305 262.115 224.63 262.073 225.902 262.036C228.644 261.904 231.376 261.6 234.085 261.126C234.251 261.148 234.421 261.128 234.579 261.067C234.738 261.006 234.881 260.906 234.997 260.775C235.113 260.643 235.199 260.484 235.248 260.311C235.297 260.137 235.307 259.953 235.278 259.774L235.308 256.903C235.366 251.071 234.026 245.496 233.505 239.69C233.339 237.86 233.354 236.009 232.939 234.216C232.769 233.464 232.52 232.727 232.369 231.97C232.239 231.229 232.158 230.478 232.125 229.724L231.745 223.94C231.565 221.263 231.307 218.68 231.117 216.009C231.012 213.407 230.663 210.824 230.074 208.299C229.65 206.721 228.768 204.933 227.242 204.739C226.428 204.639 225.639 205.023 224.864 205.291C222.959 205.938 220.915 205.929 219.016 205.265C218.429 205.015 217.817 204.838 217.193 204.739C216.879 204.693 216.559 204.738 216.266 204.869C215.973 205 215.718 205.213 215.527 205.486C215.337 205.896 215.249 206.353 215.268 206.811C215.039 212.065 214.615 217.476 213.275 222.583Z" fill="#4E9FBF"/>
<path d="M205.434 222.74C203.187 220.185 200.882 217.581 197.987 215.956C196.847 215.315 195.55 214.831 194.288 215.073C193.026 215.315 191.852 216.498 191.91 217.881C191.949 218.738 192.431 219.496 192.583 220.337C192.758 221.284 192.505 222.293 192.778 223.208C192.999 223.811 193.331 224.36 193.752 224.823L197.203 229.235C198.665 231.076 200.127 232.943 202.008 234.216C203.889 235.488 206.326 236.083 208.392 235.178C209.862 234.441 211.084 233.23 211.891 231.712C212.749 230.24 213.353 228.63 214.157 227.111C215.409 224.682 217.06 222.52 219.031 220.731C218.017 220.447 216.745 220.048 216.107 219.154C215.925 218.87 215.77 218.567 215.644 218.249L214.854 216.409C214.586 216.393 214.317 216.438 214.065 216.541C213.814 216.643 213.585 216.8 213.392 217.003C213.053 217.425 212.691 217.824 212.305 218.197C211.618 218.754 210.687 218.907 210.063 219.543C209.822 219.816 209.604 220.112 209.41 220.426C208.939 221.096 208.34 221.648 207.654 222.047C206.968 222.446 206.211 222.683 205.434 222.74Z" fill="#3F3D56"/>
<path d="M219.211 211.744C220.902 208.415 220.824 204.423 221.306 200.663C221.359 199.667 221.683 198.71 222.237 197.913C223.212 196.724 224.932 196.708 226.404 196.861C226.838 196.913 227.379 197.134 227.354 197.602C227.32 197.77 227.244 197.925 227.135 198.049C225.709 200.036 224.87 202.44 224.728 204.949C225.493 205.522 226.677 204.344 227.413 204.949C227.9 205.391 227.676 206.264 227.384 206.895C226.705 208.357 226.004 209.808 225.283 211.249C224.707 212.52 223.956 213.688 223.056 214.715C222.437 215.357 221.711 215.862 221.082 216.493C219.62 217.97 218.738 220.058 217.227 221.499C217.1 221.648 216.927 221.744 216.74 221.767C216.548 221.753 216.367 221.665 216.228 221.52C215.474 220.858 214.848 220.041 214.386 219.117C213.811 217.97 213.899 217.634 214.805 216.824C216.501 215.378 218.153 213.826 219.211 211.744Z" fill="#BE6F72"/>
<path d="M202.607 220.479C202.9 220.674 203.26 220.895 203.582 220.731C203.713 220.646 203.825 220.529 203.908 220.39C204.465 219.587 204.93 218.715 205.292 217.792C205.355 217.661 205.39 217.518 205.395 217.371C205.395 217.034 205.117 216.787 204.859 216.593C203.475 215.641 201.987 214.878 200.429 214.321C199.142 213.795 197.797 213.337 196.433 213.469C195.92 213.506 195.419 213.655 194.961 213.906C194.503 214.157 194.097 214.506 193.767 214.931C192.792 216.282 194.425 216.693 195.448 217.182C197.817 218.344 200.38 219.017 202.607 220.479Z" fill="#4E9FBF"/>
<path opacity="0.1" d="M201.072 229.419C201.056 229.539 201.066 229.662 201.101 229.777C201.137 229.892 201.197 229.997 201.277 230.082C201.418 229.335 201.233 228.546 201.379 227.794C201.593 226.664 202.612 225.812 202.7 224.676C200.833 224.281 201.087 228.199 201.072 229.419Z" fill="black"/>
<path opacity="0.2" d="M287 188.294V193.474L267.185 194.773L266.585 189.588L287 188.294Z" fill="black"/>
<path d="M199.21 196.671C200.448 195.583 199.732 193.3 200.57 191.838C201.057 191.039 201.881 190.618 202.69 190.261C203.666 189.768 204.712 189.455 205.785 189.335C206.322 189.279 206.863 189.355 207.37 189.556C207.876 189.757 208.333 190.079 208.709 190.497C209.025 190.887 209.24 191.36 209.537 191.765C209.905 192.237 210.385 192.593 210.926 192.795C211.466 192.997 212.047 193.037 212.607 192.911C213.256 192.754 213.928 192.222 213.884 191.507C213.811 191.072 213.605 190.676 213.299 190.382L211.906 188.715C210.322 186.821 208.562 184.812 206.238 184.339C204.62 184.008 202.963 184.476 201.403 185.039C200.775 185.265 200.068 185.601 199.893 186.29C199.776 186.763 199.951 187.279 199.849 187.757C199.649 188.709 198.518 189.03 197.992 189.83C197.466 190.629 197.627 191.575 197.475 192.459C197.324 193.343 196.886 194.205 196.832 195.12C196.798 195.672 197.056 196.698 197.631 196.898C198.206 197.097 198.855 196.014 199.21 196.671Z" fill="#3F3D56"/>
<path d="M213.412 190.75C213.001 188.436 212.115 186.251 210.819 184.355C209.667 182.583 208.064 181.21 206.204 180.4C205.274 180.008 204.274 179.848 203.279 179.933C202.284 180.018 201.319 180.345 200.458 180.889C199.179 181.874 198.184 183.228 197.588 184.797C196.325 187.731 195.857 191.318 197.324 194.137C197.909 193.369 198.913 193.716 199.8 193.437C200.911 193.095 201.852 192.296 202.909 191.796C206.101 190.276 210 191.507 213.412 190.75Z" fill="#FED253"/>
<path opacity="0.1" d="M198.07 190.587C197.958 189.64 197.885 188.541 198.509 187.868C198.54 187.827 198.579 187.794 198.624 187.772C198.669 187.75 198.718 187.74 198.767 187.742C198.81 187.757 198.851 187.782 198.885 187.814C198.919 187.847 198.947 187.886 198.967 187.931C199.327 188.544 199.633 189.192 199.883 189.866C199.52 189.776 199.14 189.805 198.792 189.951C198.445 190.096 198.146 190.351 197.934 190.681" fill="black"/>
<path opacity="0.1" d="M209.459 187.915L209.284 186.038C209.255 185.883 209.267 185.723 209.318 185.575C209.391 185.451 209.505 185.361 209.636 185.322C209.768 185.283 209.908 185.298 210.029 185.365C210.269 185.508 210.467 185.721 210.6 185.98C211.005 186.652 211.342 187.37 211.603 188.12C210.819 187.957 210.011 187.968 209.23 188.152" fill="black"/>
<path opacity="0.1" d="M213.821 264.113V268.404L210.463 268.646H192.802V264.113H213.821Z" fill="black"/>
<path d="M213.821 264.113V268.646H192.802L136.962 193.164V189.598H148.668L213.821 264.113Z" fill="#F1C0C0"/>
<path opacity="0.1" d="M213.821 264.113V268.646H192.802L136.962 193.164V189.598H148.668L213.821 264.113Z" fill="black"/>
<path opacity="0.1" d="M213.821 264.113V268.646H192.802L136.962 193.164V189.598L193.104 264.113H213.821Z" fill="black"/>
<path d="M144.282 339.769C144.319 339.983 144.314 340.202 144.269 340.413C144.224 340.625 144.139 340.824 144.019 340.998C143.899 341.172 143.747 341.318 143.573 341.426C143.398 341.534 143.205 341.602 143.005 341.626C141.651 342.12 140.213 342.609 139.253 343.729C138.293 344.85 138.103 346.927 139.253 347.837C139.841 348.219 140.516 348.418 141.202 348.41C143.41 348.573 145.71 348.541 147.713 347.532C149.146 346.816 150.496 345.596 152.07 345.707C152.884 345.759 153.751 346.17 154.477 345.77C155.204 345.37 155.408 344.255 155.413 343.324C155.432 341.381 155.16 339.447 154.609 337.597C154.536 337.345 151.436 337.15 151.066 337.071L147.309 336.546C146.597 336.446 145.062 335.867 144.501 336.509C143.941 337.15 144.282 339.007 144.282 339.769Z" fill="#4E9FBF"/>
<path d="M166.705 326.643C166.864 327.59 167.122 328.514 167.475 329.399C167.996 330.829 168.664 332.349 169.941 333.043C171.101 333.669 172.524 333.443 173.703 332.848C174.195 332.628 174.627 332.275 174.955 331.823C175.336 331.107 175.506 330.284 175.443 329.462C175.443 327.426 175.331 325.323 174.468 323.514C173.727 321.936 172.436 320.579 172.416 318.833L167.977 319.759C167.739 319.783 167.513 319.88 167.324 320.037C167.183 320.197 167.085 320.396 167.041 320.611C166.567 322.579 166.453 324.628 166.705 326.643Z" fill="#4E9FBF"/>
<path d="M113.687 276.682C113.502 278.376 113.58 280.19 114.398 281.652C115.217 283.114 116.942 284.082 118.434 283.498C118.51 283.477 118.582 283.439 118.645 283.388C118.707 283.336 118.76 283.272 118.799 283.198C118.839 283.02 118.816 282.833 118.736 282.672C118.077 280.776 118.132 278.678 118.887 276.824C118.984 276.582 119.194 276.298 119.423 276.393C119.519 276.445 119.596 276.53 119.642 276.635C119.878 277.075 119.996 277.578 119.983 278.086C119.915 278.547 119.901 279.016 119.944 279.48C120.037 279.932 120.485 280.358 120.875 280.164C120.988 280.089 121.085 279.99 121.162 279.874C121.238 279.757 121.291 279.625 121.319 279.485C122.405 276.093 121.913 272.386 121.416 268.836C121.42 268.754 121.408 268.673 121.38 268.597C121.351 268.521 121.308 268.453 121.253 268.397C121.197 268.342 121.131 268.3 121.059 268.275C120.987 268.25 120.911 268.242 120.836 268.252C118.536 268.005 117.279 267.41 115.963 269.719C114.832 271.665 113.687 274.342 113.687 276.682Z" fill="#4E9FBF"/>
<path d="M140.578 268.052C139.896 271.113 139.209 274.21 139.165 277.355C139.177 279.314 139.314 281.27 139.574 283.209L140.086 287.763C140.262 289.298 140.432 290.829 140.681 292.349C140.839 293.132 140.926 293.93 140.939 294.731C140.891 295.521 140.775 296.304 140.593 297.071C140.287 298.682 140.115 300.319 140.081 301.962C140.028 304.592 140.33 307.221 140.52 309.851C140.899 315.091 140.842 320.357 140.349 325.586C140.153 326.997 140.437 328.438 141.149 329.64C141.438 330.02 141.675 330.441 141.855 330.892C142.221 332.096 141.368 333.301 141.149 334.537C141.008 335.5 141.228 336.485 141.76 337.273C142.292 338.062 143.092 338.591 143.985 338.744C147.884 339.243 151.89 339.017 155.403 340.942C155.774 339.775 154.965 338.449 155.335 337.261C155.569 336.524 156.212 336.046 156.651 335.425C157.24 334.48 157.534 333.356 157.489 332.217C157.506 330.731 157.262 329.255 156.768 327.868C156.354 326.711 155.759 325.57 155.793 324.329C155.793 323.719 155.993 323.077 155.764 322.514C155.607 322.191 155.393 321.904 155.135 321.668C153.679 319.946 152.784 317.757 152.586 315.436C152.396 313.132 152.465 310.812 152.791 308.525C153.03 306.348 153.352 304.05 154.633 302.351C154.039 297.201 154.388 291.974 155.662 286.969C155.788 286.506 155.988 285.97 156.427 285.859C156.601 285.84 156.777 285.866 156.94 285.936C157.103 286.005 157.248 286.116 157.362 286.259C158.128 287.032 158.493 288.152 158.824 289.225C159.19 290.387 159.56 291.628 159.283 292.817C159.166 293.343 158.932 293.805 158.795 294.31C158.499 295.325 158.551 296.421 158.941 297.397C159.132 297.754 159.251 298.15 159.292 298.56C159.247 298.911 159.148 299.252 159 299.569C158.819 300.192 158.762 300.848 158.831 301.496C158.901 302.144 159.096 302.768 159.404 303.33C160.026 304.446 160.792 305.461 161.68 306.343C161.256 308.361 161.366 310.468 161.997 312.422C162.043 312.51 162.072 312.607 162.083 312.707C162.093 312.808 162.086 312.909 162.06 313.006C161.973 313.206 161.748 313.28 161.573 313.422C161.086 313.853 161.388 314.668 161.714 315.231C162.609 316.775 163.597 318.254 164.673 319.659C165.647 320.916 165.559 323.34 167.012 323.792C167.622 323.935 168.253 323.935 168.864 323.792C170.296 323.556 171.895 323.109 172.597 321.741C172.884 321.179 173.001 320.495 173.45 320.074C173.898 319.654 174.478 319.58 174.726 319.075C174.975 318.57 174.697 317.908 174.78 317.324C174.863 316.74 175.336 316.272 175.487 315.657C175.847 314.237 174.312 313.069 174.103 311.618C173.8 309.514 176.257 307.936 176.154 305.833C175.94 301.263 175.803 296.672 175.584 292.102C175.309 288.008 175.27 283.9 175.467 279.801C175.638 277.25 175.954 274.578 175.087 272.207C173.839 268.862 170.399 266.984 167.07 266.627C163.742 266.269 160.423 267.121 157.124 267.679C151.648 268.589 146.085 268.715 140.578 268.052Z" fill="#3F3D56"/>
<path d="M150.471 217.786C154.783 217.786 158.279 214.014 158.279 209.361C158.279 204.709 154.783 200.937 150.471 200.937C146.16 200.937 142.664 204.709 142.664 209.361C142.664 214.014 146.16 217.786 150.471 217.786Z" fill="#FBBEBE"/>
<path d="M147.294 219.359C147.029 220.025 146.583 220.589 146.015 220.977C145.447 221.365 144.783 221.558 144.112 221.531C143.829 222.793 144.506 224.066 145.281 225.06C146.89 227.08 148.97 228.601 151.305 229.465C153.64 230.33 156.147 230.506 158.566 229.977C159.508 229.795 160.401 229.393 161.183 228.799C162.238 227.849 162.946 226.525 163.181 225.065C163.406 223.614 163.469 222.14 163.371 220.674C163.399 220.384 163.322 220.094 163.157 219.864C162.962 219.701 162.721 219.615 162.475 219.622C160.827 219.464 159.107 219.396 157.66 218.523C156.212 217.65 155.184 215.678 155.881 214.058C155.769 214.31 152.923 214.431 152.547 214.484C151.373 214.663 150.199 214.862 149.029 215.094C148.467 215.127 147.911 215.24 147.377 215.43C146.67 215.825 146.933 215.63 147.099 216.345C147.348 217.439 147.713 218.223 147.294 219.359Z" fill="#FBBEBE"/>
<path d="M153.235 224.481C152.183 224.494 151.134 224.369 150.111 224.108C149.078 223.847 148.167 223.191 147.547 222.262C147.187 221.673 146.953 220.931 146.378 220.6C145.437 220.074 144.365 220.963 143.615 221.778C142.931 222.582 142.139 223.27 141.266 223.818C140.223 224.413 139.004 224.623 138.02 225.323C137.251 225.95 136.591 226.719 136.07 227.594L129.165 237.744C126.392 241.825 123.98 246.206 121.509 250.513C119.369 254.242 118.248 258.533 116.635 262.556C116.508 262.803 116.455 263.086 116.484 263.366C116.543 263.64 116.85 263.861 117.064 263.703C116.338 264.481 116.976 265.806 116.806 266.9C116.612 267.666 116.208 268.35 115.646 268.862C116.719 268.711 117.808 268.766 118.862 269.025C119.953 269.358 120.981 269.892 121.903 270.603C122.493 270.503 122.44 269.372 122.878 268.951C123.141 268.704 123.531 268.736 123.877 268.662C125.178 268.389 125.695 266.701 126.694 265.749C127.527 264.955 128.707 264.697 129.589 263.95C131.022 262.735 131.329 260.574 132.079 258.78C132.718 257.261 133.722 255.935 134.282 254.379C134.647 253.369 134.823 252.275 135.344 251.344C136.178 249.84 137.747 249.041 139.243 248.32C140.189 247.863 141.192 247.389 142.211 247.463C142.157 249.908 141.87 252.317 142.362 254.705C142.533 255.546 142.771 256.367 142.976 257.203C143.907 260.968 144.126 264.891 144.17 268.773C146.409 268.22 148.696 267.924 150.993 267.889C152.801 267.831 154.604 268.084 156.412 268.047C158.556 268.005 160.676 267.558 162.821 267.4C164.965 267.242 167.207 267.4 169.102 268.452C168.949 265.119 169.035 261.778 169.361 258.46L169.877 253.232C169.994 251.713 170.211 250.206 170.526 248.72C170.808 247.521 171.218 246.364 171.529 245.17C172.626 240.963 172.426 236.472 172.217 232.091C172.109 229.84 171.305 227.626 170.36 225.622C170.018 224.878 169.627 224.161 169.19 223.477C168.048 221.778 166.525 220.419 164.765 219.527C163.004 218.635 161.063 218.239 159.122 218.375C158.874 218.384 158.629 218.441 158.4 218.544C157.989 218.828 157.668 219.241 157.479 219.727C156.471 221.683 155.008 223.321 153.235 224.481Z" fill="#3F3D56"/>
<path d="M143.605 212.154C143.824 211.628 144.414 211.434 144.774 211.013C145.466 210.213 145.155 208.935 145.262 207.857C145.437 206.28 146.651 204.96 148.04 204.397C149.456 203.906 150.963 203.803 152.426 204.097C153.13 204.153 153.81 204.397 154.404 204.807C154.658 205.007 154.892 205.265 155.13 205.449C155.566 205.733 156.087 205.822 156.582 205.697C157.077 205.572 157.508 205.243 157.782 204.781C156.056 202.541 154.146 200.174 151.524 199.485C150.625 199.287 149.708 199.193 148.79 199.206C147.577 199.18 146.324 199.159 145.203 199.659C143.678 200.337 142.606 201.899 142.055 203.582C141.573 205.288 141.316 207.058 141.29 208.841C141.19 210.03 141.19 211.227 141.29 212.417C141.478 214.042 142.038 215.59 142.918 216.924C143.037 217.131 143.205 217.3 143.405 217.413C145.627 218.465 143.424 212.591 143.605 212.154Z" fill="#3F3D56"/>
<path d="M157.528 203.482C157.26 201.005 155.623 198.959 153.883 197.313C152.481 195.886 150.81 194.801 148.985 194.131C147.148 193.548 145.033 193.674 143.459 194.857C142.191 195.809 141.387 197.324 140.768 198.849C139.955 200.648 139.553 202.632 139.594 204.634C139.716 206.622 140.612 208.636 142.211 209.64C142.786 208.725 143.785 208.252 144.745 207.878C148.93 206.165 153.197 204.698 157.528 203.482Z" fill="#FED253"/>
<path opacity="0.1" d="M142.747 202.451C142.903 202.451 143.005 202.625 143.083 202.767C143.48 203.434 143.821 204.138 144.102 204.87C143.532 205.002 142.552 205.149 142.269 204.607C142.118 204.334 142.299 202.425 142.747 202.451Z" fill="black"/>
<path opacity="0.1" d="M153.854 201.263C153.737 201.384 153.6 201.136 153.6 200.958V198.917C153.597 198.86 153.609 198.804 153.634 198.754C153.654 198.729 153.679 198.709 153.707 198.694C153.734 198.68 153.764 198.672 153.795 198.67C154.19 198.623 154.516 198.985 154.77 199.333C155.154 199.895 155.489 200.495 155.769 201.126L153.707 201.057" fill="black"/>
<path d="M179.58 235.052C180.029 234.592 180.508 234.169 181.013 233.784C182.363 232.811 183.996 232.427 185.511 231.807C187.027 231.186 188.567 230.182 189.157 228.552C189.452 227.532 189.548 226.458 189.439 225.396C189.453 224.952 189.38 224.509 189.225 224.097C189.039 223.733 188.775 223.423 188.455 223.193C186.398 221.552 183.64 221.42 181.086 221.589C175.456 221.965 169.938 223.452 164.804 225.975C164.533 226.071 164.295 226.255 164.122 226.501C164.022 226.729 163.977 226.98 163.99 227.232C163.899 228.782 164.086 230.338 164.541 231.812C165.213 233.684 166.598 235.194 167.177 237.103C167.441 237.96 167.528 238.87 167.757 239.732C167.945 240.623 168.433 241.407 169.127 241.931C171.052 243.172 172.87 241.505 174.205 240.211L179.58 235.052Z" fill="#3F3D56"/>
<path d="M154.37 242.335L151.899 236.519C151.537 235.713 151.224 234.882 150.964 234.032C150.681 233.017 150.545 231.965 150.281 230.944C149.414 227.547 147.226 224.718 146.158 221.389C146.091 221.088 145.953 220.811 145.759 220.584C145.603 220.465 145.425 220.385 145.237 220.348C145.049 220.312 144.856 220.321 144.672 220.374C143.181 220.653 142.016 221.878 140.651 222.572C140.018 222.888 139.336 223.098 138.702 223.461C138.385 223.623 138.105 223.856 137.879 224.146C137.654 224.435 137.489 224.774 137.396 225.139C137.245 225.943 137.615 226.716 137.927 227.5C139.253 230.729 139.555 234.337 139.613 237.871C139.657 240.248 139.545 242.798 138.244 244.707C135.744 248.389 137.342 253.795 138.278 258.249C138.39 258.775 138.522 259.343 138.6 259.901C138.682 260.598 138.72 261.301 138.712 262.004C138.712 264.366 138.59 266.8 137.674 268.941C138.578 269.46 139.575 269.765 140.598 269.835C143.428 270.224 146.269 270.498 149.121 270.655C150.015 270.746 150.916 270.696 151.797 270.508C152.843 270.203 153.764 269.531 154.417 268.598C155.069 267.664 155.414 266.523 155.398 265.354C155.554 266.811 155.842 268.394 156.821 269.404C157.801 270.413 159.229 270.566 160.559 270.645C164.314 270.86 168.079 270.745 171.817 270.303C172.056 270.291 172.29 270.232 172.509 270.129C173.23 269.74 173.269 268.667 173.211 267.805C173.104 266.19 172.991 264.576 172.811 262.972C172.658 261.949 172.58 260.915 172.577 259.88C172.652 258.814 172.815 257.758 173.065 256.724C173.718 253.443 174.234 250.093 174.015 246.732C173.928 245.913 173.897 245.089 173.922 244.266C174.049 242.409 174.955 240.642 174.785 238.796C174.298 233.369 173.903 227.8 172.499 222.562C172.246 221.625 171.924 220.621 171.169 220.085C170.194 219.38 168.825 219.748 167.709 219.301C167.185 219.038 166.687 218.719 166.222 218.349C165.212 217.668 164.055 217.283 162.864 217.234C161.968 217.197 160.969 217.413 160.428 218.191C160.177 218.63 160.012 219.118 159.94 219.627C159.234 222.835 158.405 226.006 157.577 229.177L156.782 232.217L154.653 240.379C154.443 241.247 154.585 241.515 154.37 242.335Z" fill="#4E9FBF"/>
<path d="M166.831 210.492L213.972 263.95V268.483H192.953L157.528 218.591" fill="#F1C0C0"/>
<path opacity="0.1" d="M166.831 210.492L213.972 263.95V268.483H192.953L157.528 218.591" fill="black"/>
<path opacity="0.1" d="M158.279 217.886L158.43 217.944L193.255 263.95H213.972V268.483H192.953L157.528 218.591L158.279 217.886Z" fill="black"/>
<path d="M163.703 219.012C161.997 219.816 160.101 220.847 159.59 222.783C159.489 223.122 159.467 223.483 159.526 223.834C159.651 224.247 159.889 224.609 160.208 224.873C160.527 225.137 160.913 225.29 161.315 225.312C162.117 225.333 162.915 225.176 163.659 224.849L173.722 221.263C173.995 221.168 174.307 221.026 174.376 220.737C174.393 220.555 174.359 220.371 174.278 220.211C173.966 219.39 173.659 217.713 173.006 217.14C172.47 216.677 171.408 216.84 170.759 216.85C168.264 216.871 165.92 217.96 163.703 219.012Z" fill="#4E9FBF"/>
<path d="M172.675 221.689C174.37 221.683 176.056 221.965 177.67 222.525C179.291 223.093 180.727 224.152 181.807 225.575C182.122 225.973 182.346 226.445 182.46 226.953C182.558 227.479 184.147 227.794 183.796 228.152C184.863 227.968 184.61 228.51 185.692 228.499C186.773 228.489 187.943 228.189 188.591 227.258C189.042 226.493 189.242 225.588 189.161 224.686C189.176 224.062 189.066 223.441 188.84 222.867C188.352 221.762 187.232 221.168 186.198 220.658L177.494 216.361C176.99 216.071 176.448 215.864 175.886 215.746C175.414 215.698 174.938 215.71 174.468 215.783L170.526 216.272C171.388 216.874 172.09 217.708 172.562 218.692C173.035 219.676 173.262 220.776 173.221 221.883" fill="#3F3D56"/>
</g>
<defs>
<clipPath id="clip0_921_2964">
<rect width="574" height="381" fill="white"/>
</clipPath>
</defs>
</svg>
