<svg width="24" height="25" viewBox="0 0 24 25" fill="none" xmlns="http://www.w3.org/2000/svg">
<path d="M12 20H23.25V21.5H12V20ZM12 15H23.25V16.5H12V15ZM12 10H23.25V11.5H12V10ZM15.375 5H23.25V6.5H15.375V5Z" fill="#4E9FBF"/>
<path d="M14.1562 5.70301L7.8375 1.77563V4.99988H7.55789C5.70858 4.99988 3.98016 5.87903 2.69063 7.47535C1.43906 9.02485 0.75 11.0756 0.75 13.2499C0.75 15.4241 1.43906 17.4749 2.69063 19.0244C3.98016 20.6207 5.70858 21.4999 7.5577 21.4999H10.125V19.9999H7.5577C4.63125 19.9999 2.25 16.9718 2.25 13.2499C2.25 9.52801 4.63125 6.49989 7.5577 6.49989H7.8375V9.74495L14.1562 5.70301ZM9.3375 4.47413L11.3438 5.72134L9.3375 7.00482V4.47413Z" fill="#4E9FBF"/>
</svg>
