<svg width="24" height="25" viewBox="0 0 24 25" fill="none" xmlns="http://www.w3.org/2000/svg">
<path d="M6.9975 3.5C5.6535 3.5 4.473 4.394 4.1085 5.6885L1.6185 14.5355C1.48803 14.9995 1.46685 15.4875 1.55662 15.9611C1.64638 16.4346 1.84466 16.881 2.13589 17.2651C2.42712 17.6492 2.80338 17.9605 3.23516 18.1748C3.66693 18.3891 4.14248 18.5004 4.6245 18.5H19.3755C19.8575 18.5004 20.3331 18.3891 20.7648 18.1748C21.1966 17.9605 21.5729 17.6492 21.8641 17.2651C22.1553 16.881 22.3536 16.4346 22.4434 15.9611C22.5331 15.4875 22.512 14.9995 22.3815 14.5355L19.8915 5.6885C19.7143 5.05869 19.3361 4.50404 18.8146 4.10897C18.2931 3.71391 17.6568 3.50006 17.0025 3.5H6.9975ZM5.553 6.095C5.64136 5.77989 5.83035 5.50233 6.09114 5.30463C6.35194 5.10694 6.67024 4.99995 6.9975 5H17.0025C17.3298 4.99995 17.6481 5.10694 17.9089 5.30463C18.1697 5.50233 18.3586 5.77989 18.447 6.095L20.937 14.942C21.0046 15.1828 21.0156 15.4361 20.969 15.6818C20.9224 15.9276 20.8195 16.1593 20.6683 16.3586C20.5172 16.558 20.322 16.7196 20.098 16.8309C19.8739 16.9422 19.6272 17.0001 19.377 17H4.623C4.37284 17.0001 4.12608 16.9422 3.90203 16.8309C3.67799 16.7196 3.48276 16.558 3.33165 16.3586C3.18054 16.1593 3.07764 15.9276 3.03103 15.6818C2.98442 15.4361 2.99536 15.1828 3.063 14.942L5.553 6.0935V6.095ZM6.7455 20C6.54659 20 6.35582 20.079 6.21517 20.2197C6.07452 20.3603 5.9955 20.5511 5.9955 20.75C5.9955 20.9489 6.07452 21.1397 6.21517 21.2803C6.35582 21.421 6.54659 21.5 6.7455 21.5H17.253C17.4519 21.5 17.6427 21.421 17.7833 21.2803C17.924 21.1397 18.003 20.9489 18.003 20.75C18.003 20.5511 17.924 20.3603 17.7833 20.2197C17.6427 20.079 17.4519 20 17.253 20H6.7455Z" fill="#4E9FBF"/>
</svg>
